<?xml version="1.0" encoding="utf-8"?>
<!-- Generator: Adobe Illustrator 24.1.1, SVG Export Plug-In . SVG Version: 6.00 Build 0)  -->
<svg version="1.1" id="Layer_1" xmlns="http://www.w3.org/2000/svg" xmlns:xlink="http://www.w3.org/1999/xlink" x="0px" y="0px"
	 viewBox="0 0 64 64" style="enable-background:new 0 0 64 64;" xml:space="preserve">
<style type="text/css">
	.st0{fill:#191919;}
</style>
<path id="Icon_awesome-clock" class="st0" d="M32,25c-3.9,0-7,3.1-7,7s3.1,7,7,7s7-3.1,7-7l0,0C39,28.1,35.9,25,32,25z M33.6,34.9
	l-2.5-1.8C31,33,31,32.9,31,32.8V28c0-0.2,0.2-0.3,0.3-0.3h1.4c0.2,0,0.3,0.2,0.3,0.3v3.9l1.8,1.3c0.2,0.1,0.2,0.3,0.1,0.5
	c0,0,0,0,0,0l-0.8,1.1C34,35,33.8,35,33.6,34.9L33.6,34.9z"/>
</svg>
