<?xml version="1.0" ?><svg viewBox="0 0 512 512" xmlns="http://www.w3.org/2000/svg"><title/><g id="Stethoscope"><path d="M416.6226,147.9609a58.6358,58.6358,0,1,0,58.6357,58.6348A58.6354,58.6354,0,0,0,416.6226,147.9609Zm-.001,85.2676a26.6367,26.6367,0,1,1,26.6367-26.6328A26.6636,26.6636,0,0,1,416.6216,233.2285Z"/><path d="M401.1353,287.7227v55.1152A105.1841,105.1841,0,0,1,296.0728,447.9063c-55.6778,0-101.9766-44.3672-104.8467-99.625,69.3095-7.879,123.0693-67.6973,123.0713-137.8008V65.127a15.5055,15.5055,0,0,0-15.4883-15.4883h-34.166a32,32,0,1,0-.001,30.9746h18.6836V210.4805a107.8062,107.8062,0,1,1-215.6123,0V80.6133H86.397a32,32,0,1,0-.002-30.9746H52.229A15.5052,15.5052,0,0,0,36.7417,65.127V210.4805c.001,70.2754,53.96,130.1543,123.4834,137.8437,2.916,72.3047,63.1367,130.5508,135.8477,130.5508,75.0078,0,136.0341-61.0234,136.0341-136.0371V287.7227a80.3817,80.3817,0,0,1-30.9716,0Z"/></g></svg>