<?xml version="1.0" encoding="utf-8"?>
<!-- Generator: Adobe Illustrator 24.1.1, SVG Export Plug-In . SVG Version: 6.00 Build 0)  -->
<svg version="1.1" id="Layer_1" xmlns="http://www.w3.org/2000/svg" xmlns:xlink="http://www.w3.org/1999/xlink" x="0px" y="0px"
	 viewBox="0 0 64 64" style="enable-background:new 0 0 64 64;" xml:space="preserve">
<style type="text/css">
	.st0{fill:#191919;}
</style>
<path id="Path_4586" class="st0" d="M32,12c-11,0-20,9-20,20s9,20,20,20s20-9,20-20S43,12,32,12z M21.5,28.4h6.8v-6.9h7.3v6.9h6.9
	v3.6h-0.3c-0.6,0-1.2,0-1.9,0c-0.3,0-0.5,0-0.6,0.3c0,0-0.1,0.1-0.1,0.1c-0.1-1.1-0.2-2.2-0.3-3.2c0-0.2,0-0.3-0.1-0.5
	c0-0.1-0.1-0.2-0.2-0.2c0,0.1-0.1,0.1-0.1,0.2c-0.1,0.5-0.1,1-0.2,1.5c-0.1,0.7-0.1,1.4-0.2,2.1c-0.1,0.7-0.1,1.4-0.2,2.1
	c-0.1-0.4-0.2-0.7-0.2-1.1c-0.1-0.7-0.2-1.4-0.4-2.1c0-0.1-0.1-0.1-0.1-0.2c-0.1,0-0.1,0.1-0.2,0.2c-0.1,0.2-0.1,0.4-0.2,0.6
	c0,0.2-0.2,0.3-0.3,0.3c0,0,0,0,0,0c-1.4,0-2.7,0-4.1,0c-0.3,0-0.6,0-0.7,0.4c0,0,0,0-0.1,0c0-0.2-0.1-0.4-0.1-0.7
	c-0.1-0.9-0.2-1.8-0.3-2.7c0-0.1,0-0.2-0.1-0.4c0-0.1-0.1-0.1-0.1-0.1c-0.1,0-0.1,0.1-0.2,0.2c0,0.2,0,0.4-0.1,0.6
	c-0.1,1-0.2,2.1-0.3,3.1c-0.1,0.6-0.1,1.3-0.2,2c-0.2-1-0.4-2-0.6-3c0-0.1-0.1-0.2-0.2-0.3c-0.1,0.1-0.2,0.2-0.2,0.2
	c-0.1,0.2-0.1,0.6-0.3,0.7c-0.2,0.1-0.5,0-0.8,0c-0.9,0-1.8,0-2.6,0c-0.3,0-0.5,0-0.6,0.3c0,0-0.1,0.1-0.1,0.1
	c-0.1-1.1-0.2-2.1-0.3-3.2c0-0.2,0-0.4-0.1-0.6c0-0.1-0.1-0.1-0.1-0.2c0,0.1-0.1,0.1-0.1,0.2c-0.1,0.5-0.1,1-0.2,1.5
	c-0.1,0.7-0.1,1.4-0.2,2.1c-0.1,0.7-0.1,1.4-0.2,2.1h0c-0.1-0.5-0.2-1-0.2-1.4c-0.1-0.6-0.2-1.1-0.3-1.7c0-0.1-0.1-0.2-0.1-0.2
	c-0.1,0.1-0.2,0.1-0.2,0.2c-0.1,0.3-0.2,0.5-0.2,0.8h-2L21.5,28.4z M42.6,35.6h-6.8v6.9h-7.3v-6.9h-6.9v-3.5H23c0.6,0,0.6,0,0.8-0.6
	c0.1,0.7,0.2,1.4,0.4,2c0.1,0.5,0.2,1,0.3,1.6c0,0.1,0.1,0.2,0.2,0.2c0-0.1,0.1-0.2,0.1-0.2c0.1-0.9,0.2-1.7,0.2-2.6
	c0.1-0.9,0.2-1.8,0.3-2.6c0,0,0,0,0,0l0,0c0.1,0.9,0.2,1.8,0.3,2.7c0,0.1,0.1,0.2,0.1,0.2c0.1,0,0.2-0.1,0.2-0.1c0,0,0,0,0-0.1
	c0.2-0.5,0.6-0.5,1-0.5c0.9,0,1.8,0,2.8,0c0.4,0,0.4,0,0.5-0.4c0-0.1,0-0.1,0.1-0.2c0.2,1.2,0.4,2.3,0.6,3.4c0,0.1,0,0.2,0.1,0.3
	c0,0.1,0.1,0.1,0.1,0.2c0-0.1,0.1-0.1,0.1-0.2c0.1-0.8,0.1-1.5,0.2-2.3c0.1-0.8,0.2-1.7,0.2-2.5c0-0.2,0-0.3,0.1-0.5
	c0,0.3,0.1,0.5,0.1,0.8c0.1,0.6,0.2,1.3,0.2,1.9c0,0.1,0.1,0.1,0.1,0.2c0.1,0,0.2-0.1,0.2-0.1c0.2-0.6,0.6-0.6,1.1-0.6
	c1.2,0,2.5,0,3.7,0c0.3,0,0.4-0.1,0.5-0.4c0-0.1,0-0.1,0.1-0.2c0.1,0.5,0.2,1,0.3,1.4c0.1,0.7,0.2,1.4,0.4,2.2
	c0,0.1,0.1,0.2,0.2,0.2c0-0.1,0.1-0.2,0.1-0.2c0.1-0.9,0.2-1.7,0.2-2.6c0.1-0.9,0.2-1.8,0.3-2.7c0.1,0.9,0.2,1.8,0.3,2.6
	c0,0.1,0,0.2,0.1,0.3c0.1-0.1,0.2-0.1,0.2-0.2c0,0,0,0,0,0c0,0,0,0,0,0c0.2-0.5,0.6-0.6,1-0.5c0.6,0,1.1,0,1.7,0L42.6,35.6z"/>
</svg>
