<?xml version="1.0" encoding="utf-8"?>
<!-- Generator: Adobe Illustrator 24.1.1, SVG Export Plug-In . SVG Version: 6.00 Build 0)  -->
<svg version="1.1" id="Layer_1" xmlns="http://www.w3.org/2000/svg" xmlns:xlink="http://www.w3.org/1999/xlink" x="0px" y="0px"
	 viewBox="0 0 64 64" style="enable-background:new 0 0 64 64;" xml:space="preserve">
<style type="text/css">
	.st0{fill:#2E3192;}
</style>
<path id="Path_4585" class="st0" d="M52.5,32c0,6.4-3,12.4-8,16.3c-0.2-5.2,0.6-10.4,2.4-15.2c1.7-5,1.4-9.7-3-13.3
	c-4.3-3.6-9.3-4.2-14.6-2.6c-5.1,1.6-7.2,5.9-8.1,10.6c-0.5,2.4-0.7,4.7-2.3,6.7c-0.6,0.7-0.5,1.5,0.7,1.6c0.4-0.7,0.7-1.4,1.2-2.1
	c3.4-4.9,10-5.9,14-1.1c0.3,0.4,0.7,0.7,1.1,0.9c0.7,0.2,1.6,0.1,1.4-0.8c-0.3-1.1,0.1-2.2,0.9-2.9c0.6-0.7,0.3-1.4-0.4-1.9
	c-0.6-0.4-1.3-0.3-1.7,0.3c-0.1,0.1-0.1,0.1-0.1,0.2c-0.3,0.4-0.1,1-0.7,1.1c-0.7-1.2-0.8-1.7-0.4-2.5c0.5-0.8,1.4-1.3,2.3-1.2
	c1.7-0.1,3.1,1.3,3.2,3c0,0,0,0.1,0,0.1c-0.1,2.3-0.6,4.6-2.5,6.2c-0.7,0.4-0.9,1.3-0.6,2c1,3.1,1.5,6.4,1.4,9.7v4
	c-1.4,0.5-2.9,0.8-4.4,1c0-0.3-0.1-0.6-0.1-1c-0.1-0.7-0.1-1.3-0.3-2c-1.4-6.9-3.7-9.6-11.1-8.6c-1.2,0.2-1-0.4-0.9-1.1
	c0.4-1.8,2.5-2.8,5-2.6c1.7,0.3,3.4,0.7,5.1,1.3c-2.7-3.7-8.6-4.5-11.5-1.9c0.8,0.3,0.6,1,0.4,1.6c-0.5,1.1-0.5,2.4,0,3.5
	c0.2,0.5,0.1,1.1-0.1,1.6c-0.7,2.7,0,3.6,2.8,3.7c1.5,0.1,3,0.1,4.6,0.3c2.5,0.3,3.1,1,3,3.6c0,0.6-0.1,1.2-0.2,1.8
	C20.2,52,11.5,43,11.5,32c0-11.3,9.2-20.5,20.5-20.5l0,0C43.3,11.5,52.5,20.7,52.5,32L52.5,32z"/>
</svg>
