<?xml version="1.0" encoding="utf-8"?>
<!-- Generator: Adobe Illustrator 24.1.1, SVG Export Plug-In . SVG Version: 6.00 Build 0)  -->
<svg version="1.1" id="Layer_1" xmlns="http://www.w3.org/2000/svg" xmlns:xlink="http://www.w3.org/1999/xlink" x="0px" y="0px"
	 viewBox="0 0 64 64" style="enable-background:new 0 0 64 64;" xml:space="preserve">
<style type="text/css">
	.st0{fill:#191919;}
</style>
<g id="Group_2050" transform="translate(220.94 -963.21)">
	<path id="Path_4583" class="st0" d="M-178.6,980.5c-0.8-0.4-1.4-1.2-1.6-2c-1-4-4.7-6.8-8.8-6.8c-4.2,0-7.8,2.9-8.8,6.9
		c-0.2,0.8-0.6,1.4-1.3,1.8c-7.4,4.2-11.4,12.6-10,21c1.7,10.4,11,17.9,21.5,17.2c11-0.9,19.2-9.6,19.2-21.7
		C-168.7,990.5-172,984.6-178.6,980.5z M-190.4,991.8c-0.1-0.4-0.5-0.6-0.8-0.9c-0.2,0.3-0.7,0.5-0.7,0.8c-0.1,3-0.1,5.9,0,8.9
		c0,0.3,0.5,0.6,0.8,0.9c0.2-0.3,0.6-0.5,0.7-0.8c0.1-0.5,0.1-1,0-1.5h3.2c0.7,2.1-0.2,4.4-2.2,5.4c-1.8,0.9-4,0.3-5.1-1.4
		c-0.5-0.9-0.8-1.8-0.8-2.8c-0.1-2.7,0-5.3,0-8c0-2.9,1.7-4.8,4.3-4.8c2.5,0,4.1,2,4.1,4.8c0,0.3,0,0.6-0.1,0.9h-3.3
		C-190.3,992.8-190.3,992.3-190.4,991.8L-190.4,991.8z M-178.4,1006.5c1.5,0,1.6,0.2,1.6,1.7c0,1.5-0.2,1.6-1.6,1.6
		c-3.4,0-6.8,0-10.2,0c-3.5,0-7,0-10.5,0c-1.2,0-1.6-0.5-1.5-1.6c0.1-1.6,0.1-1.7,1.6-1.7C-192.2,1006.4-185.3,1006.4-178.4,1006.5
		L-178.4,1006.5z M-177.7,1000.5c0.1,2.3-1.6,4.2-3.9,4.3c-0.1,0-0.1,0-0.2,0c-2.2,0.1-4.1-1.6-4.2-3.8c0-0.1,0-0.3,0-0.4
		c0-3.9,0-7.8,0-11.7c0-0.3,0-0.6,0.1-0.9h3.2c0,0.4,0.1,0.9,0.1,1.3v10.4c0,0.2-0.1,0.5,0,0.7c0.2,0.4,0.5,0.8,0.7,1.1
		c0.3-0.4,0.8-0.7,0.8-1.1c0.1-2.1,0-4.2,0-6.4v-6h3.3V1000.5z M-196.5,977.5c1.5-3.3,5-5.2,8.6-4.8c3.4,0.4,6.2,2.8,7.1,6.2
		c0.6,2.4,0.1,5-1.4,7c-0.4,0.9-1.4,1.4-2.4,1.2c-1.2-0.2-2.4-0.1-2.2,1.9c-2-2.3-4.2-2.8-6.8-1.7c-0.3,0.1-0.9-0.2-1.2-0.5
		C-197.3,984.4-198,980.6-196.5,977.5L-196.5,977.5z M-196.5,987.9v16.5h-3.3v-16.5H-196.5z M-188,1017.8c-9.4,0.5-17.9-5.8-20.1-15
		c-2-8.6,2.3-18.3,9.8-21.7c0.4,0.7,0.2,1.7-0.5,2.1c-0.1,0-0.1,0.1-0.2,0.1c-7,4.6-9.9,13.4-7.1,21.3c2.9,7.8,10.7,12.7,19,11.9
		c8.3-0.8,14.9-7.1,16.1-15.4c1-7.5-1.7-13.5-7.8-17.9c-1.2-0.8-1.2-0.8-0.8-2.2c6.7,2.6,11.5,12.2,10.1,20.1
		C-171.1,1010.6-178.9,1017.5-188,1017.8L-188,1017.8z"/>
	<path id="Path_4584" class="st0" d="M-181.9,980.9c-1.7,1.1-3.1,0.8-4.1-0.7c-0.4,0.6-0.8,1.1-1.2,1.7h-0.5
		c-0.4-0.8-0.8-1.7-1.2-2.7c-0.5,1.9-1.1,3.6-1.6,5.3l-0.6,0.1c-0.4-1-0.9-2.1-1.3-3.2c-1.1,0.5-2.4,0.6-3.5,0.2
		c0-0.1,0-0.2-0.1-0.3c0.8,0,1.6-0.1,2.3-0.3c0.5-0.3,0.7-1,1.1-1.5c0.2,0,0.3,0,0.5,0c0.4,0.9,0.7,1.8,1.2,3c0.6-2,1.1-3.7,1.6-5.4
		c0.2,0,0.4,0,0.6,0c0.5,1,0.9,2.1,1.4,3.2c0.4-0.6,0.8-1,1.3-1.7C-184.8,979.5-185.1,981.7-181.9,980.9z"/>
</g>
</svg>
