<?xml version="1.0" encoding="utf-8"?>
<!-- Generator: Adobe Illustrator 24.1.1, SVG Export Plug-In . SVG Version: 6.00 Build 0)  -->
<svg version="1.1" id="Layer_1" xmlns="http://www.w3.org/2000/svg" xmlns:xlink="http://www.w3.org/1999/xlink" x="0px" y="0px"
	 viewBox="0 0 64 64" style="enable-background:new 0 0 64 64;" xml:space="preserve">
<style type="text/css">
	.st0{fill:#FFFFFF;}
	.st1{fill:#2E3192;}
</style>
<g id="Group_1703" transform="translate(0.085 0.085)">
	<circle id="Ellipse_219" class="st0" cx="31.9" cy="31.9" r="14.5"/>
	<g id="Icon_ionic-logo-instagram" transform="translate(6.915 6.915)">
		<path id="Path_3964" class="st1" d="M27.5,18.7c1.6,0,2.9,1.3,2.9,2.9v5.9c0,1.6-1.3,2.9-2.9,2.9h-5.9c-1.6,0-2.9-1.3-2.9-2.9
			v-5.9c0-1.6,1.3-2.9,2.9-2.9H27.5 M27.5,17.5h-5.9c-2.3,0-4.1,1.8-4.1,4.1v5.9c0,2.3,1.8,4.1,4.1,4.1h5.9c2.3,0,4.1-1.8,4.1-4.1
			v-5.9C31.6,19.3,29.7,17.5,27.5,17.5z"/>
		<path id="Path_3965" class="st1" d="M28.4,21.6c-0.5,0-0.9-0.4-0.9-0.9c0-0.5,0.4-0.9,0.9-0.9c0.5,0,0.9,0.4,0.9,0.9l0,0
			C29.2,21.2,28.8,21.6,28.4,21.6C28.4,21.6,28.4,21.6,28.4,21.6z"/>
		<path id="Path_3966" class="st1" d="M24.5,22.2c1.3,0,2.3,1.1,2.3,2.3c0,1.3-1.1,2.3-2.3,2.3c-1.3,0-2.3-1.1-2.3-2.3
			C22.2,23.2,23.2,22.2,24.5,22.2 M24.5,21c-1.9,0-3.5,1.6-3.5,3.5s1.6,3.5,3.5,3.5s3.5-1.6,3.5-3.5C28.1,22.6,26.5,21,24.5,21z"/>
	</g>
</g>
</svg>
