<?xml version="1.0" encoding="utf-8"?>
<!-- Generator: Adobe Illustrator 24.1.1, SVG Export Plug-In . SVG Version: 6.00 Build 0)  -->
<svg version="1.1" id="Layer_1" xmlns="http://www.w3.org/2000/svg" xmlns:xlink="http://www.w3.org/1999/xlink" x="0px" y="0px"
	 viewBox="0 0 64 64" style="enable-background:new 0 0 64 64;" xml:space="preserve">
<style type="text/css">
	.st0{fill:#FFFFFF;}
	.st1{fill:#2E3192;}
</style>
<g id="Group_1705" transform="translate(0 0.333)">
	<circle id="Ellipse_221" class="st0" cx="32" cy="31.7" r="14"/>
	<path id="Icon_awesome-linkedin" class="st1" d="M27.9,38.2h-2.8v-9h2.8V38.2z M26.5,28c-0.9,0-1.6-0.7-1.6-1.6
		c0-0.9,0.7-1.6,1.6-1.6s1.6,0.7,1.6,1.6l0,0C28.1,27.2,27.4,28,26.5,28z M38.4,38.2h-2.8v-4.4c0-1,0-2.4-1.5-2.4
		c-1.5,0-1.7,1.1-1.7,2.3v4.5h-2.8v-9h2.7v1.2h0c0.5-0.9,1.6-1.5,2.6-1.5c2.8,0,3.4,1.9,3.4,4.3L38.4,38.2z"/>
</g>
</svg>
