<?xml version="1.0" encoding="utf-8"?>
<!-- Generator: Adobe Illustrator 24.1.1, SVG Export Plug-In . SVG Version: 6.00 Build 0)  -->
<svg version="1.1" id="Layer_1" xmlns="http://www.w3.org/2000/svg" xmlns:xlink="http://www.w3.org/1999/xlink" x="0px" y="0px"
	 viewBox="0 0 64 64" style="enable-background:new 0 0 64 64;" xml:space="preserve">
<style type="text/css">
	.st0{fill:#191919;}
</style>
<g id="Icon_ionic-ios-mail" transform="translate(-3.375 -7.875)">
	<path id="Path_4602" class="st0" d="M42.3,36.5l-3.6,3.5c0,0,0,0.1,0,0.1c0,0,0,0,0,0l2.5,2.6c0.2,0.2,0.2,0.4,0,0.6c0,0,0,0,0,0
		c-0.2,0.2-0.4,0.2-0.6,0L38,40.8c0,0-0.1,0-0.1,0l-0.6,0.6c-0.5,0.5-1.2,0.8-1.9,0.8c-0.7,0-1.4-0.3-2-0.8l-0.6-0.6
		c0,0-0.1,0-0.1,0l-2.5,2.6c-0.2,0.2-0.4,0.2-0.6,0c-0.2-0.2-0.2-0.4,0-0.6c0,0,0,0,0,0l2.5-2.6c0,0,0-0.1,0-0.1l-3.6-3.5
		c0,0-0.1,0-0.1,0c0,0,0,0,0,0v7.1c0,0.6,0.5,1,1.1,1h11.8c0.6,0,1.1-0.5,1.1-1v-7.1C42.4,36.5,42.3,36.5,42.3,36.5
		C42.3,36.5,42.3,36.5,42.3,36.5z"/>
	<path id="Path_4603" class="st0" d="M35.4,40.6c0.5,0,0.9-0.2,1.3-0.5l5.2-4.9c-0.2-0.1-0.4-0.2-0.7-0.2H29.6
		c-0.2,0-0.5,0.1-0.7,0.2l5.2,4.9C34.4,40.4,34.9,40.6,35.4,40.6z"/>
</g>
</svg>
