<?xml version="1.0" encoding="utf-8"?>
<!-- Generator: Adobe Illustrator 24.1.1, SVG Export Plug-In . SVG Version: 6.00 Build 0)  -->
<svg version="1.1" id="Layer_1" xmlns="http://www.w3.org/2000/svg" xmlns:xlink="http://www.w3.org/1999/xlink" x="0px" y="0px"
	 viewBox="0 0 64 64" style="enable-background:new 0 0 64 64;" xml:space="preserve">
<style type="text/css">
	.st0{fill:#2E3192;}
</style>
<path id="Path_4591" class="st0" d="M27.6,24c-0.8,0.2-1.3-0.1-1.1-1.1s-0.4-0.9-1-1s-1,0.1-0.9,0.9c0.2,1-0.2,1.2-1.1,1.1
	c-0.2,0-0.5,0-0.7,0c-0.1,0-0.3,0.1-0.3,0.2c0,0.5,0.1,1,0.2,1.5c0.1,0.3,0.6,0.2,1,0.1c0.7-0.1,1.2,0.1,1,1c0.1,0.4-0.2,1,0.2,1.1
	c0.5,0.2,1,0.2,1.5,0c0.4-0.1,0.2-0.6,0.2-0.9c0-1.2,0-1.2,1.1-1.1c0.9,0.1,0.8-0.5,0.9-1.1C28.5,24.1,28.3,23.8,27.6,24z M27.6,24
	c-0.8,0.2-1.3-0.1-1.1-1.1s-0.4-0.9-1-1s-1,0.1-0.9,0.9c0.2,1-0.2,1.2-1.1,1.1c-0.2,0-0.5,0-0.7,0c-0.1,0-0.3,0.1-0.3,0.2
	c0,0.5,0.1,1,0.2,1.5c0.1,0.3,0.6,0.2,1,0.1c0.7-0.1,1.2,0.1,1,1c0.1,0.4-0.2,1,0.2,1.1c0.5,0.2,1,0.2,1.5,0
	c0.4-0.1,0.2-0.6,0.2-0.9c0-1.2,0-1.2,1.1-1.1c0.9,0.1,0.8-0.5,0.9-1.1C28.5,24.1,28.3,23.8,27.6,24z M27.6,24
	c-0.8,0.2-1.3-0.1-1.1-1.1s-0.4-0.9-1-1s-1,0.1-0.9,0.9c0.2,1-0.2,1.2-1.1,1.1c-0.2,0-0.5,0-0.7,0c-0.1,0-0.3,0.1-0.3,0.2
	c0,0.5,0.1,1,0.2,1.5c0.1,0.3,0.6,0.2,1,0.1c0.7-0.1,1.2,0.1,1,1c0.1,0.4-0.2,1,0.2,1.1c0.5,0.2,1,0.2,1.5,0
	c0.4-0.1,0.2-0.6,0.2-0.9c0-1.2,0-1.2,1.1-1.1c0.9,0.1,0.8-0.5,0.9-1.1C28.5,24.1,28.3,23.8,27.6,24z M34.6,23.9c-0.1,0-0.2,0-0.2,0
	v0.7c0.1,0,0.1,0,0.2,0c0.3,0,0.5-0.1,0.5-0.4C35,24,34.8,23.9,34.6,23.9z M34.8,21.1c-0.4,0-0.6,0.3-0.6,0.8s0.2,0.8,0.6,0.8
	c0.3,0,0.6-0.3,0.6-0.8C35.4,21.4,35.2,21.1,34.8,21.1L34.8,21.1z M27.6,24c-0.8,0.2-1.3-0.1-1.1-1.1s-0.4-0.9-1-1s-1,0.1-0.9,0.9
	c0.2,1-0.2,1.2-1.1,1.1c-0.2,0-0.5,0-0.7,0c-0.1,0-0.3,0.1-0.3,0.2c0,0.5,0.1,1,0.2,1.5c0.1,0.3,0.6,0.2,1,0.1c0.7-0.1,1.2,0.1,1,1
	c0.1,0.4-0.2,1,0.2,1.1c0.5,0.2,1,0.2,1.5,0c0.4-0.1,0.2-0.6,0.2-0.9c0-1.2,0-1.2,1.1-1.1c0.9,0.1,0.8-0.5,0.9-1.1
	C28.5,24.1,28.3,23.8,27.6,24L27.6,24z M34.8,21.1c-0.4,0-0.6,0.3-0.6,0.8s0.2,0.8,0.6,0.8c0.3,0,0.6-0.3,0.6-0.8
	C35.4,21.4,35.2,21.1,34.8,21.1L34.8,21.1z M34.6,23.9c-0.1,0-0.2,0-0.2,0v0.7c0.1,0,0.1,0,0.2,0c0.3,0,0.5-0.1,0.5-0.4
	C35,24,34.8,23.9,34.6,23.9z M27.6,24c-0.8,0.2-1.3-0.1-1.1-1.1s-0.4-0.9-1-1s-1,0.1-0.9,0.9c0.2,1-0.2,1.2-1.1,1.1
	c-0.2,0-0.5,0-0.7,0c-0.1,0-0.3,0.1-0.3,0.2c0,0.5,0.1,1,0.2,1.5c0.1,0.3,0.6,0.2,1,0.1c0.7-0.1,1.2,0.1,1,1c0.1,0.4-0.2,1,0.2,1.1
	c0.5,0.2,1,0.2,1.5,0c0.4-0.1,0.2-0.6,0.2-0.9c0-1.2,0-1.2,1.1-1.1c0.9,0.1,0.8-0.5,0.9-1.1C28.5,24.1,28.3,23.8,27.6,24z
	 M34.6,23.9c-0.1,0-0.2,0-0.2,0v0.7c0.1,0,0.1,0,0.2,0c0.3,0,0.5-0.1,0.5-0.4C35,24,34.8,23.9,34.6,23.9z M34.6,26.8
	c-0.1,0-0.2,0-0.2,0v1.5h0.2c0.4,0,0.7-0.2,0.8-0.6c0-0.1,0-0.1,0-0.2c0-0.4-0.2-0.7-0.6-0.7C34.7,26.7,34.6,26.7,34.6,26.8
	L34.6,26.8z M34.8,21.1c-0.4,0-0.6,0.3-0.6,0.8s0.2,0.8,0.6,0.8c0.3,0,0.6-0.3,0.6-0.8C35.4,21.4,35.2,21.1,34.8,21.1L34.8,21.1z
	 M27.6,24c-0.8,0.2-1.3-0.1-1.1-1.1s-0.4-0.9-1-1s-1,0.1-0.9,0.9c0.2,1-0.2,1.2-1.1,1.1c-0.2,0-0.5,0-0.7,0c-0.1,0-0.3,0.1-0.3,0.2
	c0,0.5,0.1,1,0.2,1.5c0.1,0.3,0.6,0.2,1,0.1c0.7-0.1,1.2,0.1,1,1c0.1,0.4-0.2,1,0.2,1.1c0.5,0.2,1,0.2,1.5,0
	c0.4-0.1,0.2-0.6,0.2-0.9c0-1.2,0-1.2,1.1-1.1c0.9,0.1,0.8-0.5,0.9-1.1C28.5,24.1,28.3,23.8,27.6,24L27.6,24z M34.8,21.1
	c-0.4,0-0.6,0.3-0.6,0.8s0.2,0.8,0.6,0.8c0.3,0,0.6-0.3,0.6-0.8C35.4,21.4,35.2,21.1,34.8,21.1L34.8,21.1z M34.6,23.9
	c-0.1,0-0.2,0-0.2,0v0.7c0.1,0,0.1,0,0.2,0c0.3,0,0.5-0.1,0.5-0.4C35,24,34.8,23.9,34.6,23.9L34.6,23.9z M34.6,26.7
	c-0.1,0-0.2,0-0.2,0v1.5h0.2c0.4,0,0.7-0.2,0.8-0.6c0-0.1,0-0.1,0-0.2c0-0.4-0.2-0.7-0.6-0.7C34.7,26.7,34.6,26.7,34.6,26.7
	L34.6,26.7z M27.6,23.9c-0.8,0.2-1.3-0.1-1.1-1.1s-0.4-0.9-1-1s-1,0.1-0.9,0.9c0.2,1-0.2,1.2-1.1,1.1c-0.2,0-0.5,0-0.7,0
	c-0.1,0-0.3,0.1-0.3,0.2c0,0.5,0.1,1,0.2,1.5c0.1,0.3,0.6,0.2,1,0.1c0.7-0.1,1.2,0.1,1,1c0.1,0.4-0.2,1,0.2,1.1c0.5,0.2,1,0.2,1.5,0
	c0.4-0.1,0.2-0.6,0.2-0.9c0-1.2,0-1.2,1.1-1.1c0.9,0.1,0.8-0.5,0.9-1.1C28.5,24.1,28.3,23.8,27.6,23.9L27.6,23.9z M34.6,23.9
	c-0.1,0-0.2,0-0.2,0v0.7c0.1,0,0.1,0,0.2,0c0.3,0,0.5-0.1,0.5-0.4C35,24,34.8,23.9,34.6,23.9L34.6,23.9z M34.6,26.7
	c-0.1,0-0.2,0-0.2,0v1.5h0.2c0.4,0,0.7-0.2,0.8-0.6c0-0.1,0-0.1,0-0.2c0-0.4-0.2-0.7-0.6-0.7C34.7,26.7,34.6,26.7,34.6,26.7
	L34.6,26.7z M34.8,21c-0.4,0-0.6,0.3-0.6,0.8s0.2,0.8,0.6,0.8c0.3,0,0.6-0.3,0.6-0.8C35.4,21.4,35.2,21.1,34.8,21L34.8,21z
	 M35.9,25.5c0,0.1,0.1,0.2,0.2,0.2c0,0,0,0,0,0c0.1,0,0.3-0.1,0.3-0.2c0,0,0,0,0-0.1v-0.2C36.2,25.2,35.9,25.2,35.9,25.5L35.9,25.5z
	 M27.6,23.9c-0.8,0.2-1.3-0.1-1.1-1.1s-0.4-0.9-1-1s-1,0.1-0.9,0.9c0.2,1-0.2,1.2-1.1,1.1c-0.2,0-0.5,0-0.7,0
	c-0.1,0-0.3,0.1-0.3,0.2c0,0.5,0.1,1,0.2,1.5c0.1,0.3,0.6,0.2,1,0.1c0.7-0.1,1.2,0.1,1,1c0.1,0.4-0.2,1,0.2,1.1c0.5,0.2,1,0.2,1.5,0
	c0.4-0.1,0.2-0.6,0.2-0.9c0-1.2,0-1.2,1.1-1.1c0.9,0.1,0.8-0.5,0.9-1.1C28.5,24.1,28.3,23.8,27.6,23.9L27.6,23.9z M34.8,21
	c-0.4,0-0.6,0.3-0.6,0.8s0.2,0.8,0.6,0.8c0.3,0,0.6-0.3,0.6-0.8C35.4,21.4,35.2,21.1,34.8,21L34.8,21z M34.6,23.9
	c-0.1,0-0.2,0-0.2,0v0.7c0.1,0,0.1,0,0.2,0c0.3,0,0.5-0.1,0.5-0.4C35,24,34.8,23.9,34.6,23.9L34.6,23.9z M34.6,26.7
	c-0.1,0-0.2,0-0.2,0v1.5h0.2c0.4,0,0.7-0.2,0.8-0.6c0-0.1,0-0.1,0-0.2c0-0.4-0.2-0.7-0.6-0.7C34.7,26.7,34.6,26.7,34.6,26.7
	L34.6,26.7z M35.9,25.5c0,0.1,0.1,0.2,0.2,0.2c0,0,0,0,0,0c0.1,0,0.3-0.1,0.3-0.2c0,0,0,0,0-0.1v-0.2C36.2,25.2,35.9,25.2,35.9,25.5
	L35.9,25.5z M27.6,23.9c-0.8,0.2-1.3-0.1-1.1-1.1s-0.4-0.9-1-1s-1,0.1-0.9,0.9c0.2,1-0.2,1.2-1.1,1.1c-0.2,0-0.5,0-0.7,0
	c-0.1,0-0.3,0.1-0.3,0.2c0,0.5,0.1,1,0.2,1.5c0.1,0.3,0.6,0.2,1,0.1c0.7-0.1,1.2,0.1,1,1c0.1,0.4-0.2,1,0.2,1.1c0.5,0.2,1,0.2,1.5,0
	c0.4-0.1,0.2-0.6,0.2-0.9c0-1.2,0-1.2,1.1-1.1c0.9,0.1,0.8-0.5,0.9-1.1C28.5,24.1,28.3,23.8,27.6,23.9L27.6,23.9z M34.6,23.9
	c-0.1,0-0.2,0-0.2,0v0.7c0.1,0,0.1,0,0.2,0c0.3,0,0.5-0.1,0.5-0.4C35,24,34.8,23.9,34.6,23.9L34.6,23.9z M34.6,26.7
	c-0.1,0-0.2,0-0.2,0v1.5h0.2c0.4,0,0.7-0.2,0.8-0.6c0-0.1,0-0.1,0-0.2c0-0.4-0.2-0.7-0.6-0.7C34.7,26.7,34.6,26.7,34.6,26.7
	L34.6,26.7z M34.8,21c-0.4,0-0.6,0.3-0.6,0.8s0.2,0.8,0.6,0.8c0.3,0,0.6-0.3,0.6-0.8C35.4,21.4,35.2,21.1,34.8,21L34.8,21z
	 M35.9,25.5c0,0.1,0.1,0.2,0.2,0.2c0,0,0,0,0,0c0.1,0,0.3-0.1,0.3-0.2c0,0,0,0,0-0.1v-0.2C36.2,25.2,35.9,25.2,35.9,25.5L35.9,25.5z
	 M27.6,23.9c-0.8,0.2-1.3-0.1-1.1-1.1s-0.4-0.9-1-1s-1,0.1-0.9,0.9c0.2,1-0.2,1.2-1.1,1.1c-0.2,0-0.5,0-0.7,0
	c-0.1,0-0.3,0.1-0.3,0.2c0,0.5,0.1,1,0.2,1.5c0.1,0.3,0.6,0.2,1,0.1c0.7-0.1,1.2,0.1,1,1c0.1,0.4-0.2,1,0.2,1.1c0.5,0.2,1,0.2,1.5,0
	c0.4-0.1,0.2-0.6,0.2-0.9c0-1.2,0-1.2,1.1-1.1c0.9,0.1,0.8-0.5,0.9-1.1C28.5,24.1,28.3,23.8,27.6,23.9L27.6,23.9z M34.9,21
	c-0.4,0-0.6,0.3-0.6,0.8s0.2,0.8,0.6,0.8c0.3,0,0.6-0.3,0.6-0.8C35.4,21.4,35.2,21.1,34.9,21L34.9,21z M34.6,23.9
	c-0.1,0-0.2,0-0.2,0v0.7c0.1,0,0.1,0,0.2,0c0.3,0,0.5-0.1,0.5-0.4C35,24,34.8,23.9,34.6,23.9L34.6,23.9z M34.6,26.7
	c-0.1,0-0.2,0-0.2,0v1.5h0.2c0.4,0,0.7-0.2,0.8-0.6c0-0.1,0-0.1,0-0.2c0-0.4-0.3-0.7-0.6-0.7C34.7,26.7,34.6,26.7,34.6,26.7
	L34.6,26.7z M35.9,25.5c0,0.1,0.1,0.2,0.2,0.2c0,0,0,0,0,0c0.1,0,0.3-0.1,0.3-0.2c0,0,0,0,0-0.1v-0.2C36.2,25.2,35.9,25.2,35.9,25.5
	L35.9,25.5z M27.6,23.9c-0.8,0.2-1.3-0.1-1.1-1.1s-0.4-0.9-1-1s-1,0.1-0.9,0.9c0.2,1-0.2,1.2-1.1,1.1c-0.2,0-0.5,0-0.7,0
	c-0.1,0-0.3,0.1-0.3,0.2c0,0.5,0.1,1,0.2,1.5c0.1,0.3,0.6,0.2,1,0.1c0.7-0.1,1.2,0.1,1,1c0.1,0.4-0.2,1,0.2,1.1c0.5,0.2,1,0.2,1.5,0
	c0.4-0.1,0.2-0.6,0.2-0.9c0-1.2,0-1.2,1.1-1.1c0.9,0.1,0.8-0.5,0.9-1.1C28.5,24.1,28.3,23.8,27.6,23.9L27.6,23.9z M34.6,23.9
	c-0.1,0-0.2,0-0.2,0v0.7c0.1,0,0.1,0,0.2,0c0.3,0,0.5-0.1,0.5-0.4C35,24,34.8,23.9,34.6,23.9L34.6,23.9z M34.6,26.7
	c-0.1,0-0.2,0-0.2,0v1.5h0.2c0.4,0,0.7-0.2,0.8-0.6c0-0.1,0-0.1,0-0.2c0-0.4-0.3-0.7-0.6-0.7C34.7,26.7,34.6,26.7,34.6,26.7
	L34.6,26.7z M34.9,21c-0.4,0-0.6,0.3-0.6,0.8s0.2,0.8,0.6,0.8c0.3,0,0.6-0.3,0.6-0.8C35.4,21.4,35.2,21.1,34.9,21L34.9,21z
	 M35.9,25.5c0,0.1,0.1,0.2,0.2,0.2c0,0,0,0,0,0c0.1,0,0.3-0.1,0.3-0.2c0,0,0,0,0-0.1v-0.2C36.2,25.2,35.9,25.2,35.9,25.5L35.9,25.5z
	 M39,24.7c-0.2,0-0.4,0.2-0.4,0.4h0.7C39.4,24.9,39.2,24.7,39,24.7C39,24.7,39,24.7,39,24.7L39,24.7z M27.6,23.9
	c-0.8,0.2-1.3-0.1-1.1-1.1s-0.4-0.9-1-1s-1,0.1-0.9,0.9c0.2,1-0.2,1.2-1.1,1.1c-0.2,0-0.5,0-0.7,0c-0.1,0-0.3,0.1-0.3,0.2
	c0,0.5,0.1,1,0.2,1.5c0.1,0.3,0.6,0.2,1,0.1c0.7-0.1,1.2,0.1,1,1c0.1,0.4-0.2,1,0.2,1.1c0.5,0.2,1,0.2,1.5,0
	c0.4-0.1,0.2-0.6,0.2-0.9c0-1.2,0-1.2,1.1-1.1c0.9,0.1,0.8-0.5,0.9-1.1C28.5,24.1,28.3,23.8,27.6,23.9L27.6,23.9z M34.9,21
	c-0.4,0-0.6,0.3-0.6,0.8s0.2,0.8,0.6,0.8c0.3,0,0.6-0.3,0.6-0.8C35.4,21.4,35.2,21.1,34.9,21L34.9,21z M34.6,23.9
	c-0.1,0-0.2,0-0.2,0v0.7c0.1,0,0.1,0,0.2,0c0.3,0,0.5-0.1,0.5-0.4C35,24,34.8,23.9,34.6,23.9L34.6,23.9z M34.6,26.7
	c-0.1,0-0.2,0-0.2,0v1.5h0.2c0.4,0,0.7-0.2,0.8-0.6c0-0.1,0-0.1,0-0.2C35.4,27.1,35.1,26.8,34.6,26.7C34.7,26.7,34.6,26.7,34.6,26.7
	L34.6,26.7z M35.9,25.5c0,0.1,0.1,0.2,0.2,0.2c0,0,0,0,0,0c0.1,0,0.3-0.1,0.3-0.2c0,0,0,0,0-0.1v-0.2C36.2,25.2,35.9,25.2,35.9,25.5
	L35.9,25.5z M39,24.7c-0.2,0-0.4,0.2-0.4,0.4h0.7C39.3,24.9,39.2,24.7,39,24.7C39,24.7,39,24.7,39,24.7L39,24.7z M27.6,23.9
	c-0.8,0.2-1.3-0.1-1.1-1.1s-0.4-0.9-1-1s-1,0.1-0.9,0.9c0.2,1-0.2,1.2-1.1,1.1c-0.2,0-0.5,0-0.7,0c-0.1,0-0.3,0.1-0.3,0.2
	c0,0.5,0.1,1,0.2,1.5c0.1,0.3,0.6,0.2,1,0.1c0.7-0.1,1.2,0.1,1,1c0.1,0.4-0.2,1,0.2,1.1c0.5,0.2,1,0.2,1.5,0
	c0.4-0.1,0.2-0.6,0.2-0.9c0-1.2,0-1.2,1.1-1.1c0.9,0.1,0.8-0.5,0.9-1.1C28.5,24.1,28.3,23.8,27.6,23.9L27.6,23.9z M34.6,23.9
	c-0.1,0-0.2,0-0.2,0v0.7c0.1,0,0.1,0,0.2,0c0.3,0,0.5-0.1,0.5-0.4C35,24,34.8,23.9,34.6,23.9L34.6,23.9z M34.6,26.7
	c-0.1,0-0.2,0-0.2,0v1.5h0.2c0.4,0,0.7-0.2,0.8-0.6c0-0.1,0-0.1,0-0.2C35.4,27.1,35.1,26.8,34.6,26.7C34.7,26.7,34.6,26.7,34.6,26.7
	L34.6,26.7z M34.9,21c-0.4,0-0.6,0.3-0.6,0.8s0.2,0.8,0.6,0.8c0.3,0,0.6-0.3,0.6-0.8C35.4,21.4,35.2,21.1,34.9,21L34.9,21z
	 M35.9,25.5c0,0.1,0.1,0.2,0.2,0.2c0,0,0,0,0,0c0.1,0,0.3-0.1,0.3-0.2c0,0,0,0,0-0.1v-0.2C36.2,25.2,35.9,25.2,35.9,25.5L35.9,25.5z
	 M39,24.7c-0.2,0-0.4,0.2-0.4,0.4h0.7C39.3,24.9,39.2,24.7,39,24.7C39,24.7,39,24.7,39,24.7L39,24.7z M27.6,23.9
	c-0.8,0.2-1.3-0.1-1.1-1.1s-0.4-0.9-1-1s-1,0.1-0.9,0.9c0.2,1-0.2,1.2-1.1,1.1c-0.2,0-0.5,0-0.7,0c-0.1,0-0.3,0.1-0.3,0.2
	c0,0.5,0.1,1,0.2,1.5c0.1,0.3,0.6,0.2,1,0.1c0.7-0.1,1.2,0.1,1,1c0.1,0.4-0.2,1,0.2,1.1c0.5,0.2,1,0.2,1.5,0
	c0.4-0.1,0.2-0.6,0.2-0.9c0-1.2,0-1.2,1.1-1.1c0.9,0.1,0.8-0.5,0.9-1.1C28.5,24.1,28.3,23.8,27.6,23.9L27.6,23.9z M34.9,21
	c-0.4,0-0.6,0.3-0.6,0.8s0.2,0.8,0.6,0.8c0.3,0,0.6-0.3,0.6-0.8C35.4,21.4,35.2,21.1,34.9,21L34.9,21z M34.6,23.8
	c-0.1,0-0.2,0-0.2,0v0.7c0.1,0,0.1,0,0.2,0c0.3,0,0.5-0.1,0.5-0.4C35,24,34.8,23.9,34.6,23.8L34.6,23.8z M34.6,26.7
	c-0.1,0-0.2,0-0.2,0v1.5h0.2c0.4,0,0.7-0.2,0.8-0.6c0-0.1,0-0.1,0-0.2C35.3,27.1,35.1,26.8,34.6,26.7C34.7,26.7,34.6,26.7,34.6,26.7
	L34.6,26.7z M35.9,25.4c0,0.1,0.1,0.2,0.2,0.2c0,0,0,0,0,0c0.1,0,0.3-0.1,0.3-0.2c0,0,0,0,0-0.1v-0.2C36.2,25.2,35.9,25.2,35.9,25.4
	L35.9,25.4z M39,24.7c-0.2,0-0.4,0.2-0.4,0.4h0.7C39.3,24.9,39.2,24.7,39,24.7C39,24.7,39,24.7,39,24.7L39,24.7z M27.6,23.9
	c-0.8,0.2-1.3-0.1-1.1-1.1s-0.4-0.9-1-1s-1,0.1-0.9,0.9c0.2,1-0.2,1.2-1.1,1.1c-0.2,0-0.5,0-0.7,0c-0.1,0-0.3,0.1-0.3,0.2
	c0,0.5,0.1,1,0.2,1.5c0.1,0.3,0.6,0.2,1,0.1c0.7-0.1,1.2,0.1,1,1c0.1,0.4-0.2,1,0.2,1.1c0.5,0.2,1,0.2,1.5,0
	c0.4-0.1,0.2-0.6,0.2-0.9c0-1.2,0-1.2,1.1-1.1c0.9,0.1,0.8-0.5,0.9-1.1C28.5,24.1,28.3,23.8,27.6,23.9L27.6,23.9z M34.6,23.8
	c-0.1,0-0.2,0-0.2,0v0.7c0.1,0,0.1,0,0.2,0c0.3,0,0.5-0.1,0.5-0.4C35,24,34.8,23.9,34.6,23.8L34.6,23.8z M34.6,26.7
	c-0.1,0-0.2,0-0.2,0v1.5h0.2c0.4,0,0.7-0.2,0.8-0.6c0-0.1,0-0.1,0-0.2C35.3,27.1,35.1,26.8,34.6,26.7C34.7,26.7,34.6,26.7,34.6,26.7
	L34.6,26.7z M34.9,21c-0.4,0-0.6,0.3-0.6,0.8s0.2,0.8,0.6,0.8c0.3,0,0.6-0.3,0.6-0.8C35.4,21.4,35.2,21.1,34.9,21L34.9,21z
	 M35.9,25.4c0,0.1,0.1,0.2,0.2,0.2c0,0,0,0,0,0c0.1,0,0.3-0.1,0.3-0.2c0,0,0,0,0-0.1v-0.2C36.2,25.2,35.9,25.2,35.9,25.4L35.9,25.4z
	 M36.7,27.5c-0.2,0-0.3,0.2-0.3,0.4H37C37,27.8,36.9,27.6,36.7,27.5L36.7,27.5z M38.1,27.5c-0.2,0-0.3,0.1-0.4,0.3c0,0,0,0.1,0,0.1
	v0.2c0,0,0,0.1,0,0.1c0,0.2,0.2,0.3,0.3,0.3c0.2,0,0.4-0.2,0.4-0.5C38.5,27.8,38.3,27.6,38.1,27.5L38.1,27.5z M39,24.7
	c-0.2,0-0.4,0.2-0.4,0.4h0.7C39.3,24.9,39.2,24.7,39,24.7C39,24.7,39,24.7,39,24.7L39,24.7z M27.6,23.9c-0.8,0.2-1.3-0.1-1.1-1.1
	s-0.4-0.9-1-1s-1,0.1-0.9,0.9c0.2,1-0.2,1.2-1.1,1.1c-0.2,0-0.5,0-0.7,0c-0.1,0-0.3,0.1-0.3,0.2c0,0.5,0.1,1,0.2,1.5
	c0.1,0.3,0.6,0.2,1,0.1c0.7-0.1,1.2,0.1,1,1c0.1,0.4-0.2,1,0.2,1.1c0.5,0.2,1,0.2,1.5,0c0.4-0.1,0.2-0.6,0.2-0.9
	c0-1.2,0-1.2,1.1-1.1c0.9,0.1,0.8-0.5,0.9-1.1C28.5,24.1,28.3,23.8,27.6,23.9L27.6,23.9z M34.9,21c-0.4,0-0.6,0.3-0.6,0.8
	s0.2,0.8,0.6,0.8c0.3,0,0.6-0.3,0.6-0.8C35.4,21.4,35.2,21.1,34.9,21L34.9,21z M34.6,23.8c-0.1,0-0.2,0-0.2,0v0.7c0.1,0,0.1,0,0.2,0
	c0.3,0,0.5-0.1,0.5-0.4C35,24,34.8,23.9,34.6,23.8L34.6,23.8z M34.6,26.7c-0.1,0-0.2,0-0.2,0v1.5h0.2c0.4,0,0.7-0.2,0.8-0.6
	c0-0.1,0-0.1,0-0.2C35.3,27.1,35.1,26.8,34.6,26.7C34.7,26.7,34.6,26.7,34.6,26.7L34.6,26.7z M35.9,25.4c0,0.1,0.1,0.2,0.2,0.2
	c0,0,0,0,0,0c0.1,0,0.3-0.1,0.3-0.2c0,0,0,0,0-0.1v-0.2C36.2,25.2,35.9,25.2,35.9,25.4L35.9,25.4z M36.7,27.5
	c-0.2,0-0.3,0.2-0.3,0.4H37C37,27.8,36.9,27.6,36.7,27.5L36.7,27.5z M38.1,27.5c-0.2,0-0.3,0.1-0.4,0.3c0,0,0,0.1,0,0.1v0.2
	c0,0,0,0.1,0,0.1c0,0.2,0.2,0.3,0.3,0.3c0.2,0,0.4-0.2,0.4-0.5C38.5,27.8,38.3,27.6,38.1,27.5L38.1,27.5z M39,24.7
	c-0.2,0-0.4,0.2-0.4,0.4h0.7C39.3,24.9,39.2,24.7,39,24.7C39,24.7,39,24.7,39,24.7L39,24.7z M27.6,23.9c-0.8,0.2-1.3-0.1-1.1-1.1
	s-0.4-0.9-1-1s-1,0.1-0.9,0.9c0.2,1-0.2,1.2-1.1,1.1c-0.2,0-0.5,0-0.7,0c-0.1,0-0.3,0.1-0.3,0.2c0,0.5,0.1,1,0.2,1.5
	c0.1,0.3,0.6,0.2,1,0.1c0.7-0.1,1.2,0.1,1,1c0.1,0.4-0.2,1,0.2,1.1c0.5,0.2,1,0.2,1.5,0c0.4-0.1,0.2-0.6,0.2-0.9
	c0-1.2,0-1.2,1.1-1.1c0.9,0.1,0.8-0.5,0.9-1.1C28.5,24.1,28.3,23.8,27.6,23.9L27.6,23.9z M34.6,23.8c-0.1,0-0.2,0-0.2,0v0.7
	c0.1,0,0.1,0,0.2,0c0.3,0,0.5-0.1,0.5-0.4C35,24,34.8,23.9,34.6,23.8L34.6,23.8z M34.6,26.7c-0.1,0-0.2,0-0.2,0v1.5h0.2
	c0.4,0,0.7-0.2,0.8-0.6c0-0.1,0-0.1,0-0.2C35.3,27.1,35.1,26.8,34.6,26.7C34.7,26.7,34.6,26.7,34.6,26.7L34.6,26.7z M34.9,21
	c-0.4,0-0.6,0.3-0.6,0.8s0.2,0.8,0.6,0.8c0.3,0,0.6-0.3,0.6-0.8C35.4,21.4,35.2,21.1,34.9,21L34.9,21z M35.9,25.4
	c0,0.1,0.1,0.2,0.2,0.2c0,0,0,0,0,0c0.1,0,0.3-0.1,0.3-0.2c0,0,0,0,0-0.1v-0.2C36.2,25.2,35.9,25.2,35.9,25.4L35.9,25.4z M36.7,27.5
	c-0.2,0-0.3,0.2-0.3,0.4H37C37,27.8,36.9,27.6,36.7,27.5L36.7,27.5z M38.1,27.5c-0.2,0-0.3,0.1-0.4,0.3c0,0,0,0.1,0,0.1v0.2
	c0,0,0,0.1,0,0.1c0,0.2,0.2,0.3,0.3,0.3c0.2,0,0.4-0.2,0.4-0.5C38.5,27.8,38.3,27.6,38.1,27.5L38.1,27.5z M39,24.7
	c-0.2,0-0.4,0.2-0.4,0.4h0.7C39.3,24.9,39.2,24.7,39,24.7C39,24.7,39,24.7,39,24.7L39,24.7z M39.1,28.3c0,0.1,0.1,0.2,0.2,0.2
	c0,0,0,0,0,0c0.1,0,0.3-0.1,0.3-0.2c0,0,0,0,0-0.1V28C39.4,28,39.1,28.1,39.1,28.3L39.1,28.3z M27.6,23.9c-0.8,0.2-1.3-0.1-1.1-1.1
	s-0.4-0.9-1-1s-1,0.1-0.9,0.9c0.2,1-0.2,1.2-1.1,1.1c-0.2,0-0.5,0-0.7,0c-0.1,0-0.3,0.1-0.3,0.2c0,0.5,0.1,1,0.2,1.5
	c0.1,0.3,0.6,0.2,1,0.1c0.7-0.1,1.2,0.1,1,1c0.1,0.4-0.2,1,0.2,1.1c0.5,0.2,1,0.2,1.5,0c0.4-0.1,0.2-0.6,0.2-0.9
	c0-1.2,0-1.2,1.1-1.1c0.9,0.1,0.8-0.5,0.9-1.1C28.5,24.1,28.3,23.8,27.6,23.9L27.6,23.9z M34.9,21c-0.4,0-0.6,0.3-0.6,0.8
	s0.2,0.8,0.6,0.8c0.3,0,0.6-0.3,0.6-0.8C35.4,21.4,35.2,21.1,34.9,21L34.9,21z M34.6,23.8c-0.1,0-0.2,0-0.2,0v0.7c0.1,0,0.1,0,0.2,0
	c0.3,0,0.5-0.1,0.5-0.4C35,24,34.8,23.9,34.6,23.8L34.6,23.8z M34.6,26.7c-0.1,0-0.2,0-0.2,0v1.5h0.2c0.4,0,0.7-0.2,0.8-0.6
	c0-0.1,0-0.1,0-0.2C35.3,27,35,26.7,34.6,26.7C34.7,26.7,34.6,26.7,34.6,26.7L34.6,26.7z M35.9,25.4c0,0.1,0.1,0.2,0.2,0.2
	c0,0,0,0,0,0c0.1,0,0.3-0.1,0.3-0.2c0,0,0,0,0-0.1v-0.2C36.2,25.2,35.9,25.2,35.9,25.4L35.9,25.4z M36.7,27.5
	c-0.2,0-0.3,0.2-0.3,0.4H37C37,27.8,36.9,27.6,36.7,27.5L36.7,27.5z M38.1,27.5c-0.2,0-0.3,0.1-0.4,0.3c0,0,0,0.1,0,0.1v0.2
	c0,0,0,0.1,0,0.1c0,0.2,0.2,0.3,0.3,0.3c0.2,0,0.4-0.2,0.4-0.5C38.5,27.8,38.3,27.6,38.1,27.5L38.1,27.5z M39,24.6
	c-0.2,0-0.4,0.2-0.4,0.4h0.7C39.3,24.9,39.2,24.7,39,24.6C39,24.7,39,24.7,39,24.6L39,24.6z M39.1,28.3c0,0.1,0.1,0.2,0.2,0.2
	c0,0,0,0,0,0c0.1,0,0.3-0.1,0.3-0.2c0,0,0,0,0-0.1V28C39.4,28,39.1,28.1,39.1,28.3L39.1,28.3z M27.6,23.9c-0.8,0.2-1.3-0.1-1.1-1.1
	s-0.4-0.9-1-1s-1,0.1-0.9,0.9c0.2,1-0.2,1.2-1.1,1.1c-0.2,0-0.5,0-0.7,0c-0.1,0-0.3,0.1-0.3,0.2c0,0.5,0.1,1,0.2,1.5
	c0.1,0.3,0.6,0.2,1,0.1c0.7-0.1,1.2,0.1,1,1c0.1,0.4-0.2,1,0.2,1.1c0.5,0.2,1,0.2,1.5,0c0.4-0.1,0.2-0.6,0.2-0.9
	c0-1.2,0-1.2,1.1-1.1c0.9,0.1,0.8-0.5,0.9-1.1C28.5,24.1,28.3,23.8,27.6,23.9L27.6,23.9z M34.6,23.8c-0.1,0-0.2,0-0.2,0v0.7
	c0.1,0,0.1,0,0.2,0c0.3,0,0.5-0.1,0.5-0.4C35,24,34.8,23.9,34.6,23.8L34.6,23.8z M34.6,26.7c-0.1,0-0.2,0-0.2,0v1.5h0.2
	c0.4,0,0.7-0.2,0.8-0.6c0-0.1,0-0.1,0-0.2C35.3,27,35.1,26.7,34.6,26.7C34.7,26.7,34.6,26.7,34.6,26.7L34.6,26.7z M34.9,21
	c-0.4,0-0.6,0.3-0.6,0.8s0.2,0.8,0.6,0.8c0.3,0,0.6-0.3,0.6-0.8C35.4,21.4,35.2,21.1,34.9,21L34.9,21z M36,25.4
	c0,0.1,0.1,0.2,0.2,0.2c0,0,0,0,0,0c0.1,0,0.3-0.1,0.3-0.2c0,0,0,0,0-0.1v-0.2C36.2,25.2,35.9,25.2,36,25.4L36,25.4z M36.7,27.5
	c-0.2,0-0.3,0.2-0.3,0.4H37C37,27.8,36.9,27.6,36.7,27.5L36.7,27.5z M38.1,27.5c-0.2,0-0.3,0.1-0.4,0.3c0,0,0,0.1,0,0.1v0.2
	c0,0,0,0.1,0,0.1c0,0.2,0.2,0.3,0.3,0.3c0.2,0,0.4-0.2,0.4-0.5C38.5,27.8,38.3,27.6,38.1,27.5L38.1,27.5z M39,24.6
	c-0.2,0-0.4,0.2-0.4,0.4h0.7C39.3,24.8,39.2,24.7,39,24.6C39,24.7,39,24.7,39,24.6L39,24.6z M39.2,28.3c0,0.1,0.1,0.2,0.2,0.2
	c0,0,0,0,0,0c0.1,0,0.3-0.1,0.3-0.2c0,0,0,0,0-0.1V28C39.4,28,39.1,28.1,39.2,28.3L39.2,28.3z M27.7,23.9c-0.8,0.2-1.3-0.1-1.1-1.1
	s-0.4-0.9-1-1s-1,0.1-0.9,0.9c0.2,1-0.2,1.2-1.1,1.1c-0.2,0-0.5,0-0.7,0c-0.1,0-0.3,0.1-0.3,0.2c0,0.5,0.1,1,0.2,1.5
	c0.1,0.3,0.6,0.2,1,0.1c0.7-0.1,1.2,0.1,1,1c0.1,0.4-0.2,1,0.2,1.1c0.5,0.2,1,0.2,1.5,0c0.4-0.1,0.2-0.6,0.2-0.9
	c0-1.2,0-1.2,1.1-1.1c0.9,0.1,0.8-0.5,0.9-1.1C28.5,24.1,28.3,23.8,27.7,23.9L27.7,23.9z M34.9,21c-0.4,0-0.6,0.3-0.6,0.8
	s0.2,0.8,0.6,0.8c0.3,0,0.6-0.3,0.6-0.8C35.4,21.4,35.2,21.1,34.9,21L34.9,21z M34.6,23.8c-0.1,0-0.2,0-0.2,0v0.7c0.1,0,0.1,0,0.2,0
	c0.3,0,0.5-0.1,0.5-0.4C35,24,34.8,23.9,34.6,23.8L34.6,23.8z M34.6,26.7c-0.1,0-0.2,0-0.2,0v1.5h0.2c0.4,0,0.7-0.2,0.8-0.6
	c0-0.1,0-0.1,0-0.2C35.3,27,35,26.7,34.6,26.7C34.7,26.7,34.6,26.7,34.6,26.7L34.6,26.7z M36,25.4c0,0.1,0.1,0.2,0.2,0.2
	c0,0,0,0,0,0c0.1,0,0.3-0.1,0.3-0.2c0,0,0,0,0-0.1v-0.2C36.2,25.2,35.9,25.2,36,25.4L36,25.4z M36.7,27.5c-0.2,0-0.3,0.2-0.3,0.4H37
	C37,27.8,36.9,27.6,36.7,27.5L36.7,27.5z M38.1,27.5c-0.2,0-0.3,0.1-0.4,0.3c0,0,0,0.1,0,0.1v0.2c0,0,0,0.1,0,0.1
	c0,0.2,0.2,0.3,0.3,0.3c0.2,0,0.4-0.2,0.4-0.5C38.5,27.8,38.3,27.6,38.1,27.5L38.1,27.5z M39,24.6c-0.2,0-0.4,0.2-0.4,0.4h0.7
	C39.3,24.8,39.2,24.7,39,24.6C39,24.7,39,24.7,39,24.6L39,24.6z M39.2,28.3c0,0.1,0.1,0.2,0.2,0.2c0,0,0,0,0,0
	c0.1,0,0.3-0.1,0.3-0.2c0,0,0,0,0-0.1V28C39.4,28,39.1,28.1,39.2,28.3L39.2,28.3z M27.7,23.9c-0.8,0.2-1.3-0.1-1.1-1.1s-0.4-0.9-1-1
	s-1,0.1-0.9,0.9c0.2,1-0.2,1.2-1.1,1.1c-0.2,0-0.5,0-0.7,0c-0.1,0-0.3,0.1-0.3,0.2c0,0.5,0.1,1,0.2,1.5c0.1,0.3,0.6,0.2,1,0.1
	c0.7-0.1,1.2,0.1,1,1c0.1,0.4-0.2,1,0.2,1.1c0.5,0.2,1,0.2,1.5,0c0.4-0.1,0.2-0.6,0.2-0.9c0-1.2,0-1.2,1.1-1.1
	c0.9,0.1,0.8-0.5,0.9-1.1C28.5,24.1,28.3,23.8,27.7,23.9L27.7,23.9z M34.6,23.8c-0.1,0-0.2,0-0.2,0v0.7c0.1,0,0.1,0,0.2,0
	c0.3,0,0.5-0.1,0.5-0.4C35,24,34.8,23.9,34.6,23.8L34.6,23.8z M34.6,26.7c-0.1,0-0.2,0-0.2,0v1.5h0.2c0.4,0,0.7-0.2,0.8-0.6
	c0-0.1,0-0.1,0-0.2C35.4,27,35.1,26.7,34.6,26.7C34.7,26.7,34.6,26.7,34.6,26.7L34.6,26.7z M34.9,21c-0.4,0-0.6,0.3-0.6,0.8
	s0.2,0.8,0.6,0.8c0.3,0,0.6-0.3,0.6-0.8C35.4,21.4,35.2,21.1,34.9,21L34.9,21z M36,25.4c0,0.1,0.1,0.2,0.2,0.2c0,0,0,0,0,0
	c0.1,0,0.3-0.1,0.3-0.2c0,0,0,0,0-0.1v-0.2C36.2,25.2,35.9,25.2,36,25.4L36,25.4z M36.7,27.5c-0.2,0-0.3,0.2-0.3,0.4H37
	C37,27.8,36.9,27.6,36.7,27.5L36.7,27.5z M38.1,27.5c-0.2,0-0.3,0.1-0.4,0.3c0,0,0,0.1,0,0.1v0.2c0,0,0,0.1,0,0.1
	c0,0.2,0.2,0.3,0.3,0.3c0.2,0,0.4-0.2,0.4-0.5C38.5,27.8,38.3,27.6,38.1,27.5L38.1,27.5z M39,24.6c-0.2,0-0.4,0.2-0.4,0.4h0.7
	C39.3,24.8,39.2,24.7,39,24.6C39,24.7,39,24.7,39,24.6L39,24.6z M39.2,28.3c0,0.1,0.1,0.2,0.2,0.2c0,0,0,0,0,0
	c0.1,0,0.3-0.1,0.3-0.2c0,0,0,0,0-0.1V28C39.4,28,39.1,28.1,39.2,28.3L39.2,28.3z M44.7,27.5c-0.2,0-0.3,0.2-0.4,0.4h0.7
	C45,27.7,44.9,27.5,44.7,27.5L44.7,27.5z M44.7,27.5c-0.2,0-0.3,0.2-0.4,0.4h0.7C45,27.7,44.9,27.5,44.7,27.5L44.7,27.5z M27.7,23.9
	c-0.8,0.2-1.3-0.1-1.1-1.1s-0.4-0.9-1-1s-1,0.1-0.9,0.9c0.2,1-0.2,1.2-1.1,1.1c-0.2,0-0.5,0-0.7,0c-0.1,0-0.3,0.1-0.3,0.2
	c0,0.5,0.1,1,0.2,1.5c0.1,0.3,0.6,0.2,1,0.1c0.7-0.1,1.2,0.1,1,1c0.1,0.4-0.2,1,0.2,1.1c0.5,0.2,1,0.2,1.5,0
	c0.4-0.1,0.2-0.6,0.2-0.9c0-1.2,0-1.2,1.1-1.1c0.9,0.1,0.8-0.5,0.9-1.1C28.5,24.1,28.3,23.8,27.7,23.9L27.7,23.9z M34.9,21
	c-0.4,0-0.6,0.3-0.6,0.8s0.2,0.8,0.6,0.8c0.3,0,0.6-0.3,0.6-0.8C35.4,21.4,35.2,21.1,34.9,21L34.9,21z M34.6,23.8
	c-0.1,0-0.2,0-0.2,0v0.7c0.1,0,0.1,0,0.2,0c0.3,0,0.5-0.1,0.5-0.4C35,24,34.8,23.9,34.6,23.8L34.6,23.8z M34.6,26.7
	c-0.1,0-0.2,0-0.2,0v1.5h0.2c0.4,0,0.7-0.2,0.8-0.6c0-0.1,0-0.1,0-0.2C35.3,27,35,26.7,34.6,26.7C34.7,26.7,34.6,26.7,34.6,26.7
	L34.6,26.7z M36,25.4c0,0.1,0.1,0.2,0.2,0.2c0,0,0,0,0,0c0.1,0,0.3-0.1,0.3-0.2c0,0,0,0,0-0.1v-0.2C36.2,25.2,35.9,25.2,36,25.4
	L36,25.4z M36.7,27.5c-0.2,0-0.3,0.2-0.3,0.4H37C37,27.8,36.9,27.6,36.7,27.5L36.7,27.5z M38.1,27.5c-0.2,0-0.3,0.1-0.4,0.3
	c0,0,0,0.1,0,0.1v0.2c0,0,0,0.1,0,0.1c0,0.2,0.2,0.3,0.3,0.3c0.2,0,0.4-0.2,0.4-0.5C38.5,27.8,38.3,27.6,38.1,27.5L38.1,27.5z
	 M39,24.6c-0.2,0-0.4,0.2-0.4,0.4h0.7C39.3,24.8,39.2,24.7,39,24.6C39,24.7,39,24.7,39,24.6L39,24.6z M39.2,28.2
	c0,0.1,0.1,0.2,0.2,0.2c0,0,0,0,0,0c0.1,0,0.3-0.1,0.3-0.2c0,0,0,0,0-0.1V28C39.4,28,39.1,28.1,39.2,28.2L39.2,28.2z M32,12
	c-11,0-20,9-20,20c0,11,9,20,20,20s20-9,20-20C51.9,21,43,12.1,32,12L32,12z M41.2,24.5h0.2v-0.3l0.2-0.1v0.4h0.3v0.2h-0.3v0.7
	c0,0.2,0.1,0.2,0.2,0.2c0.1,0,0.1,0,0.1,0l0,0.2c-0.1,0-0.1,0-0.2,0c-0.1,0-0.2,0-0.2-0.1c-0.1-0.1-0.1-0.2-0.1-0.3v-0.7h-0.2
	L41.2,24.5z M41.1,27.3h0.2V27l0.2-0.1v0.4h0.3v0.2h-0.3v0.7c0,0.2,0,0.2,0.2,0.2c0,0,0.1,0,0.1,0v0.2c-0.1,0-0.1,0-0.2,0
	c-0.1,0-0.2,0-0.2-0.1c-0.1-0.1-0.1-0.2-0.1-0.3v-0.7h-0.2L41.1,27.3z M39.9,24.5h0.2l0,0.2c0.1-0.1,0.2-0.2,0.4-0.2
	c0.2,0,0.5,0.1,0.5,0.5v0.8h-0.2V25c0-0.2-0.1-0.4-0.3-0.4c-0.1,0-0.3,0.1-0.3,0.2c0,0,0,0.1,0,0.1v0.8h-0.2L39.9,24.5z M40.3,27.3
	h0.2v0.2h0c0-0.2,0.2-0.3,0.3-0.3h0.1v0.2h-0.1c-0.2,0-0.3,0.1-0.3,0.3v0c0,0,0,0.1,0,0.1v0.7h-0.2v-0.9
	C40.3,27.6,40.3,27.5,40.3,27.3L40.3,27.3z M39.9,27.8v0.5c0,0.1,0,0.2,0,0.3h-0.2l0-0.2h0c-0.1,0.1-0.2,0.2-0.4,0.2
	c-0.2,0-0.4-0.1-0.4-0.3c0,0,0,0,0-0.1c0-0.3,0.3-0.5,0.8-0.5v0c0-0.2-0.1-0.3-0.2-0.3c0,0,0,0-0.1,0c-0.1,0-0.2,0-0.3,0.1L39,27.4
	c0.1-0.1,0.3-0.1,0.4-0.1C39.8,27.4,39.9,27.6,39.9,27.8L39.9,27.8z M39.1,24.5c0.3,0,0.5,0.3,0.5,0.6c0,0,0,0,0,0v0.1h-0.9
	c0,0.2,0.2,0.4,0.4,0.4c0,0,0,0,0.1,0c0.1,0,0.2,0,0.3-0.1l0,0.2c-0.1,0.1-0.3,0.1-0.4,0.1c-0.3,0-0.6-0.2-0.6-0.5c0,0,0-0.1,0-0.1
	C38.5,24.8,38.7,24.6,39.1,24.5L39.1,24.5z M37.5,27.3h0.2v0.2h0c0.1-0.2,0.3-0.2,0.4-0.2c0.3,0,0.5,0.3,0.5,0.6c0,0,0,0,0,0
	c0,0.5-0.3,0.7-0.6,0.7c-0.2,0-0.3-0.1-0.4-0.2h0v0.7h-0.2v-1.4C37.5,27.7,37.5,27.5,37.5,27.3L37.5,27.3z M36.8,28.5
	c0.1,0,0.2,0,0.4-0.1l0,0.2c-0.1,0.1-0.3,0.1-0.4,0.1c-0.3,0-0.6-0.2-0.6-0.6c0,0,0-0.1,0-0.1c0-0.3,0.2-0.6,0.5-0.7c0,0,0,0,0.1,0
	c0.3,0,0.5,0.2,0.5,0.5c0,0,0,0,0,0c0,0,0,0.1,0,0.1h-0.9c-0.1,0.2,0.1,0.4,0.3,0.5C36.7,28.5,36.7,28.5,36.8,28.5L36.8,28.5z
	 M37.2,25.7c-0.1-0.1-0.1-0.2-0.1-0.3v-0.7h-0.2v-0.2h0.2v-0.3l0.2-0.1v0.4h0.3v0.2h-0.3v0.7c0,0.2,0,0.2,0.2,0.2c0.1,0,0.1,0,0.1,0
	l0,0.2c-0.1,0-0.1,0-0.2,0C37.4,25.8,37.3,25.8,37.2,25.7L37.2,25.7z M38.1,24.3c-0.1,0-0.1-0.1-0.1-0.1c0,0,0,0,0,0
	c0-0.1,0-0.1,0.1-0.2c0,0,0,0,0,0c0.1,0,0.1,0.1,0.1,0.2C38.2,24.3,38.1,24.4,38.1,24.3L38.1,24.3z M38.2,24.5v1.3h-0.2v-1.3H38.2z
	 M37.6,21.7h0.2v-0.3l0.2-0.1v0.4h0.3v0.2H38v0.7c0,0.2,0,0.2,0.2,0.2c0,0,0.1,0,0.1,0v0.2c0,0-0.1,0-0.2,0c-0.1,0-0.2,0-0.2-0.1
	c-0.1-0.1-0.1-0.2-0.1-0.3v-0.7h-0.2L37.6,21.7z M36.3,21.7h0.2v0.7c0,0.2,0.1,0.4,0.3,0.4c0.1,0,0.3-0.1,0.3-0.2c0,0,0-0.1,0-0.1
	v-0.8h0.2v0.9c0,0.1,0,0.2,0,0.3h-0.2l0-0.2C37,22.9,36.9,23,36.7,23c-0.2,0-0.4-0.1-0.4-0.6L36.3,21.7z M36.7,25v0.5
	c0,0.1,0,0.2,0,0.3h-0.2l0-0.2h0c-0.1,0.1-0.2,0.2-0.4,0.2c-0.2,0-0.4-0.1-0.4-0.3c0,0,0,0,0-0.1c0-0.3,0.3-0.5,0.8-0.5v0
	c0-0.1-0.1-0.3-0.2-0.3c0,0,0,0,0,0c-0.1,0-0.2,0-0.3,0.1l-0.1-0.2c0.1-0.1,0.3-0.1,0.4-0.1C36.5,24.5,36.7,24.7,36.7,25
	C36.7,25,36.7,25,36.7,25L36.7,25z M34.6,26.3c0.3,0,0.7,0.1,1,0.2c0.3,0.2,0.4,0.5,0.4,0.9c0,0.4-0.1,0.7-0.4,1
	c-0.3,0.2-0.7,0.3-1.1,0.3c-0.2,0-0.4,0-0.6,0v-2.3C34.1,26.3,34.3,26.3,34.6,26.3L34.6,26.3z M33.8,25.8v-2.3
	c0.2,0,0.5-0.1,0.7-0.1c0.2,0,0.5,0.1,0.7,0.2c0.2,0.1,0.3,0.3,0.2,0.6c0,0.2-0.1,0.4-0.2,0.6c-0.2,0.2-0.5,0.3-0.8,0.2h-0.2v0.8
	L33.8,25.8z M34.9,20.6c0.6,0,1.1,0.5,1.1,1.1c0,0,0,0.1,0,0.1c0.1,0.6-0.4,1.2-1,1.2c-0.1,0-0.1,0-0.2,0c-0.6,0-1.1-0.5-1.1-1.1
	c0,0,0-0.1,0-0.1C33.7,21.2,34.2,20.7,34.9,20.6L34.9,20.6z M38.7,41.3c-0.5,3.4-2.7,6.3-7,6.4c-3.4,0-6.2-2.4-6.8-5.7
	c-0.2-1.2-0.2-2.4-0.1-3.5c0-1.8,0-3.7,0-5.5c0.1-0.4-0.1-0.7-0.5-0.8c0,0,0,0,0,0c-1.1-0.3-2.1-1-2.8-1.9c-0.9-1.4-1.7-3-2.2-4.6
	c-0.3-1.2-0.4-2.4-0.4-3.6c0-1.3,1-2.4,2.2-2.6c0.6-0.1,1.1-0.4,1.5-0.7c0.3-0.3,0.8-0.3,1.1,0c0.3,0.2,0.4,0.6,0.3,0.9
	c-0.1,0.4-0.5,0.7-0.9,0.6c-0.9,0-1.8,0.2-2.6,0.6c-0.3,0.1-0.3,0.3-0.3,0.5c-0.4,1.6-0.3,3.2,0.4,4.7c0.7,1.7,1.9,3.2,3.4,4.2
	c0.8,0.6,1.8,0.6,2.6,0.1c0.8-0.5,1.6-1.2,2.5-1.7c0.4-0.3,0.4-0.8,0.6-1.3c0.8-1.4,1.2-3,1.2-4.7c0-2-1.2-2.4-2.9-2.5
	c-0.5,0-1,0-1.2-0.5c-0.2-0.3-0.1-0.7,0.2-1c0.4-0.3,0.9-0.3,1.3,0c0,0,0,0,0,0c0.5,0.5,1.2,0.5,1.8,0.7c1.6,0.6,1.9,1.8,1.9,3.3
	c0,2.2-0.8,4.4-2.1,6.2c-0.4,0.5-0.5,1.1-0.9,1.6c-0.5,0.7-1.2,1.2-2.1,1.5c-0.8,0.2-0.9,0.6-0.9,1.3c0.1,2.5,0.1,5,0,7.5
	c-0.1,1.8,0.8,3.6,2.3,4.6c3.9,2.7,8.1,0.1,8.8-3.8c0-0.1,0.1-0.3,0.1-0.4c-0.1-1,0.7-0.4,1.1-0.5C38.8,40.5,38.7,41.1,38.7,41.3
	L38.7,41.3z M25.5,20.7c2.2,0.1,4.1,1.9,4.2,4.1c0,2.3-1.8,4.1-4.1,4.2c0,0,0,0-0.1,0c-2.1,0-3.9-1.5-4.1-3.6
	c-0.3-2.2,1.3-4.2,3.5-4.5C25.1,20.8,25.3,20.8,25.5,20.7L25.5,20.7z M41.5,37.3c-0.9,1-1.9,2-3,2.8v-1.4c0-0.6,0-1,0.6-1.3
	c0.9-0.6,1.1-1.7,0.5-2.6c0,0-0.1-0.1-0.1-0.1c-0.6-0.9-1.9-1-2.7-0.4c-0.1,0-0.1,0.1-0.2,0.1c-0.8,0.6-0.9,1.8-0.3,2.5
	c0.1,0.1,0.1,0.1,0.2,0.2c0.9,0.6,0.8,1.4,1,2.2c0,0.2-0.1,0.4-0.2,0.5c-0.2,0.2-0.3,0-0.4-0.2c-0.8-0.8-1.7-1.6-2.4-2.5
	c-0.8-1-1.1-2.2-0.8-3.5c0.1-0.8,0.5-1.5,1.2-1.8c1-0.5,2.1-0.2,2.7,0.7c0.3,0.4,0.5,0.4,0.9,0.1c0.4-0.3,0.9-0.6,1.4-0.7
	c1.2-0.2,2.3,0.6,2.5,1.8c0,0.2,0,0.3,0,0.5C42.6,35.3,42.2,36.5,41.5,37.3L41.5,37.3z M43.9,28.6h-0.2v-0.7c0-0.2-0.1-0.4-0.3-0.4
	c-0.1,0-0.2,0.1-0.3,0.2c0,0,0,0.1,0,0.1v0.8h-0.2v-0.8c0-0.2-0.1-0.4-0.3-0.4c-0.1,0-0.2,0.1-0.3,0.2c0,0,0,0.1,0,0.1v0.8h-0.2
	v-0.9c0-0.1,0-0.2,0-0.3h0.2v0.2h0c0.1-0.2,0.2-0.2,0.4-0.2c0.2,0,0.3,0.1,0.3,0.2h0c0-0.1,0.1-0.1,0.1-0.2c0.1-0.1,0.2-0.1,0.3-0.1
	c0.2,0,0.4,0.1,0.4,0.5V28.6z M45.3,28h-0.9c0,0.2,0.2,0.4,0.4,0.4c0,0,0,0,0.1,0c0.1,0,0.2,0,0.3-0.1l0,0.2
	c-0.1,0.1-0.3,0.1-0.4,0.1c-0.3,0-0.6-0.2-0.6-0.6c0,0,0-0.1,0-0.1c0-0.3,0.2-0.6,0.5-0.7c0,0,0.1,0,0.1,0c0.3,0,0.5,0.3,0.5,0.6
	c0,0,0,0,0,0V28z M46.6,28.6h-0.2v-0.7c0-0.2-0.1-0.4-0.3-0.4c-0.1,0-0.3,0.1-0.3,0.2c0,0,0,0.1,0,0.1v0.8h-0.2v-1.3h0.2l0,0.2
	c0.1-0.1,0.2-0.2,0.4-0.2c0.2,0,0.5,0.1,0.5,0.5L46.6,28.6z M47.5,28.4c0,0,0.1,0,0.1,0v0.2c-0.1,0-0.1,0-0.2,0
	c-0.1,0-0.2,0-0.2-0.1c-0.1-0.1-0.1-0.2-0.1-0.3v-0.7h-0.2v-0.2h0.2V27l0.2-0.1v0.4h0.3v0.2h-0.3v0.7C47.2,28.4,47.3,28.5,47.5,28.4
	L47.5,28.4z M44.7,27.5c-0.2,0-0.3,0.2-0.4,0.4h0.7C45,27.7,44.9,27.5,44.7,27.5L44.7,27.5z M39.2,28.3c0,0.1,0.1,0.2,0.2,0.2
	c0,0,0,0,0,0c0.1,0,0.3-0.1,0.3-0.2c0,0,0,0,0-0.1V28C39.4,28,39.1,28.1,39.2,28.3L39.2,28.3z M39,24.6c-0.2,0-0.4,0.2-0.4,0.4h0.7
	C39.3,24.8,39.2,24.7,39,24.6L39,24.6z M38.1,28.5c0.2,0,0.4-0.2,0.4-0.5c0-0.2-0.1-0.5-0.4-0.5c-0.2,0-0.3,0.1-0.4,0.3
	c0,0,0,0.1,0,0.1v0.2c0,0,0,0.1,0,0.1C37.8,28.4,37.9,28.5,38.1,28.5L38.1,28.5z M36.7,27.5c-0.2,0-0.3,0.2-0.3,0.4H37
	C37,27.8,36.9,27.6,36.7,27.5L36.7,27.5z M36,25.4c0,0.1,0.1,0.2,0.2,0.2c0,0,0,0,0,0c0.1,0,0.3-0.1,0.3-0.2c0,0,0,0,0-0.1v-0.2
	C36.2,25.2,35.9,25.2,36,25.4L36,25.4z M34.9,22.6c0.3,0,0.6-0.3,0.6-0.8c0-0.4-0.2-0.8-0.6-0.8s-0.6,0.3-0.6,0.8
	S34.5,22.6,34.9,22.6L34.9,22.6z M35.3,27.4c0-0.4-0.2-0.7-0.6-0.7c0,0-0.1,0-0.1,0c-0.1,0-0.2,0-0.2,0v1.5h0.2
	c0.4,0,0.7-0.3,0.8-0.7C35.3,27.5,35.3,27.5,35.3,27.4L35.3,27.4z M35,24.2c0-0.2-0.2-0.3-0.4-0.3c-0.1,0-0.2,0-0.2,0v0.7
	c0.1,0,0.1,0,0.2,0C34.8,24.6,35,24.5,35,24.2L35,24.2z M22.5,24.1c0,0.5,0.1,1,0.2,1.5c0.1,0.3,0.6,0.2,1,0.1c0.7-0.1,1.2,0.1,1,1
	c0.1,0.4-0.2,1,0.2,1.1c0.5,0.2,1,0.2,1.5,0c0.4-0.1,0.2-0.6,0.2-0.9c0-1.2,0-1.2,1.1-1.1c0.9,0.1,0.8-0.5,0.9-1.1
	c0-0.7-0.2-1-0.9-0.8c-0.8,0.2-1.3-0.1-1.1-1.1s-0.4-0.9-1-1s-1,0.1-0.9,0.9c0.2,1-0.2,1.2-1.1,1.1c-0.2,0-0.5,0-0.7,0
	C22.7,24,22.4,24,22.5,24.1L22.5,24.1z M39.2,28.3c0,0.1,0.1,0.2,0.2,0.2c0,0,0,0,0,0c0.1,0,0.3-0.1,0.3-0.2c0,0,0,0,0-0.1V28
	C39.4,28,39.1,28.1,39.2,28.3L39.2,28.3z M39,24.6c-0.2,0-0.4,0.2-0.4,0.4h0.7C39.3,24.8,39.2,24.7,39,24.6L39,24.6L39,24.6z
	 M38.1,27.5c-0.2,0-0.3,0.1-0.4,0.3c0,0,0,0.1,0,0.1v0.2c0,0,0,0.1,0,0.1c0,0.2,0.2,0.3,0.3,0.3c0.2,0,0.4-0.2,0.4-0.5
	C38.5,27.8,38.3,27.6,38.1,27.5L38.1,27.5z M36.7,27.5c-0.2,0-0.3,0.2-0.3,0.4H37C37,27.8,36.9,27.6,36.7,27.5L36.7,27.5z M36,25.4
	c0,0.1,0.1,0.2,0.2,0.2c0,0,0,0,0,0c0.1,0,0.3-0.1,0.3-0.2c0,0,0,0,0-0.1v-0.2C36.2,25.2,35.9,25.2,36,25.4L36,25.4z M34.6,26.7
	c-0.1,0-0.2,0-0.2,0v1.5h0.2c0.4,0,0.7-0.2,0.8-0.6c0-0.1,0-0.1,0-0.2C35.3,27,35,26.7,34.6,26.7C34.6,26.7,34.6,26.7,34.6,26.7
	L34.6,26.7z M34.6,23.8c-0.1,0-0.2,0-0.2,0v0.7c0.1,0,0.1,0,0.2,0c0.3,0,0.5-0.1,0.5-0.4C35,24,34.8,23.9,34.6,23.8L34.6,23.8z
	 M34.9,21c-0.4,0-0.6,0.3-0.6,0.8s0.2,0.8,0.6,0.8c0.3,0,0.6-0.3,0.6-0.8C35.4,21.4,35.2,21.1,34.9,21L34.9,21z M27.7,23.9
	c-0.8,0.2-1.3-0.1-1.1-1.1s-0.4-0.9-1-1s-1,0.1-0.9,0.9c0.2,1-0.2,1.2-1.1,1.1c-0.2,0-0.5,0-0.7,0c-0.1,0-0.3,0.1-0.3,0.2
	c0,0.5,0.1,1,0.2,1.5c0.1,0.3,0.6,0.2,1,0.1c0.7-0.1,1.2,0.1,1,1c0.1,0.4-0.2,1,0.2,1.1c0.5,0.2,1,0.2,1.5,0
	c0.4-0.1,0.2-0.6,0.2-0.9c0-1.2,0-1.2,1.1-1.1c0.9,0.1,0.8-0.5,0.9-1.1C28.5,24.1,28.3,23.8,27.7,23.9L27.7,23.9z M44.7,27.5
	c-0.2,0-0.3,0.2-0.4,0.4h0.7C45,27.7,44.9,27.5,44.7,27.5L44.7,27.5z M44.7,27.5c-0.2,0-0.3,0.2-0.4,0.4h0.7
	C45,27.7,44.9,27.5,44.7,27.5L44.7,27.5z M39.2,28.3c0,0.1,0.1,0.2,0.2,0.2c0,0,0,0,0,0c0.1,0,0.3-0.1,0.3-0.2c0,0,0,0,0-0.1V28
	C39.4,28,39.1,28.1,39.2,28.3L39.2,28.3z M39,24.6c-0.2,0-0.4,0.2-0.4,0.4h0.7C39.3,24.8,39.2,24.7,39,24.6C39,24.7,39,24.7,39,24.6
	L39,24.6z M38.1,27.5c-0.2,0-0.3,0.1-0.4,0.3c0,0,0,0.1,0,0.1v0.2c0,0,0,0.1,0,0.1c0,0.2,0.2,0.3,0.3,0.3c0.2,0,0.4-0.2,0.4-0.5
	C38.5,27.8,38.3,27.6,38.1,27.5L38.1,27.5z M36.7,27.5c-0.2,0-0.3,0.2-0.3,0.4H37C37,27.8,36.9,27.6,36.7,27.5L36.7,27.5z M36,25.4
	c0,0.1,0.1,0.2,0.2,0.2c0,0,0,0,0,0c0.1,0,0.3-0.1,0.3-0.2c0,0,0,0,0-0.1v-0.2C36.2,25.2,35.9,25.2,36,25.4L36,25.4z M34.9,21
	c-0.4,0-0.6,0.3-0.6,0.8s0.2,0.8,0.6,0.8c0.3,0,0.6-0.3,0.6-0.8C35.4,21.4,35.2,21.1,34.9,21L34.9,21z M34.6,26.7
	c-0.1,0-0.2,0-0.2,0v1.5h0.2c0.4,0,0.7-0.2,0.8-0.6c0-0.1,0-0.1,0-0.2C35.3,27,35.1,26.7,34.6,26.7C34.7,26.7,34.6,26.7,34.6,26.7
	L34.6,26.7z M34.6,23.8c-0.1,0-0.2,0-0.2,0v0.7c0.1,0,0.1,0,0.2,0c0.3,0,0.5-0.1,0.5-0.4C35,24,34.8,23.9,34.6,23.8L34.6,23.8z
	 M27.7,23.9c-0.8,0.2-1.3-0.1-1.1-1.1s-0.4-0.9-1-1s-1,0.1-0.9,0.9c0.2,1-0.2,1.2-1.1,1.1c-0.2,0-0.5,0-0.7,0
	c-0.1,0-0.3,0.1-0.3,0.2c0,0.5,0.1,1,0.2,1.5c0.1,0.3,0.6,0.2,1,0.1c0.7-0.1,1.2,0.1,1,1c0.1,0.4-0.2,1,0.2,1.1c0.5,0.2,1,0.2,1.5,0
	c0.4-0.1,0.2-0.6,0.2-0.9c0-1.2,0-1.2,1.1-1.1c0.9,0.1,0.8-0.5,0.9-1.1C28.5,24.1,28.3,23.8,27.7,23.9L27.7,23.9z M39.2,28.3
	c0,0.1,0.1,0.2,0.2,0.2c0,0,0,0,0,0c0.1,0,0.3-0.1,0.3-0.2c0,0,0,0,0-0.1V28C39.4,28,39.1,28.1,39.2,28.3L39.2,28.3z M39,24.6
	c-0.2,0-0.4,0.2-0.4,0.4h0.7C39.3,24.8,39.2,24.7,39,24.6C39,24.7,39,24.7,39,24.6L39,24.6z M38.1,27.5c-0.2,0-0.3,0.1-0.4,0.3
	c0,0,0,0.1,0,0.1v0.2c0,0,0,0.1,0,0.1c0,0.2,0.2,0.3,0.3,0.3c0.2,0,0.4-0.2,0.4-0.5C38.5,27.8,38.3,27.6,38.1,27.5L38.1,27.5z
	 M36.7,27.5c-0.2,0-0.3,0.2-0.3,0.4H37C37,27.8,36.9,27.6,36.7,27.5L36.7,27.5z M36,25.4c0,0.1,0.1,0.2,0.2,0.2c0,0,0,0,0,0
	c0.1,0,0.3-0.1,0.3-0.2c0,0,0,0,0-0.1v-0.2C36.2,25.2,35.9,25.2,36,25.4L36,25.4z M34.6,26.7c-0.1,0-0.2,0-0.2,0v1.5h0.2
	c0.4,0,0.7-0.2,0.8-0.6c0-0.1,0-0.1,0-0.2C35.3,27,35,26.7,34.6,26.7C34.7,26.7,34.6,26.7,34.6,26.7L34.6,26.7z M34.6,23.8
	c-0.1,0-0.2,0-0.2,0v0.7c0.1,0,0.1,0,0.2,0c0.3,0,0.5-0.1,0.5-0.4C35,24,34.8,23.9,34.6,23.8L34.6,23.8z M34.9,21
	c-0.4,0-0.6,0.3-0.6,0.8s0.2,0.8,0.6,0.8c0.3,0,0.6-0.3,0.6-0.8C35.4,21.4,35.2,21.1,34.9,21L34.9,21z M27.6,23.9
	c-0.8,0.2-1.3-0.1-1.1-1.1s-0.4-0.9-1-1s-1,0.1-0.9,0.9c0.2,1-0.2,1.2-1.1,1.1c-0.2,0-0.5,0-0.7,0c-0.1,0-0.3,0.1-0.3,0.2
	c0,0.5,0.1,1,0.2,1.5c0.1,0.3,0.6,0.2,1,0.1c0.7-0.1,1.2,0.1,1,1c0.1,0.4-0.2,1,0.2,1.1c0.5,0.2,1,0.2,1.5,0
	c0.4-0.1,0.2-0.6,0.2-0.9c0-1.2,0-1.2,1.1-1.1c0.9,0.1,0.8-0.5,0.9-1.1C28.5,24.1,28.3,23.8,27.6,23.9L27.6,23.9z M39.1,28.3
	c0,0.1,0.1,0.2,0.2,0.2c0,0,0,0,0,0c0.1,0,0.3-0.1,0.3-0.2c0,0,0,0,0-0.1V28C39.4,28,39.1,28.1,39.1,28.3L39.1,28.3z M39,24.6
	c-0.2,0-0.4,0.2-0.4,0.4h0.7C39.3,24.9,39.2,24.7,39,24.6C39,24.7,39,24.7,39,24.6L39,24.6z M38.1,27.5c-0.2,0-0.3,0.1-0.4,0.3
	c0,0,0,0.1,0,0.1v0.2c0,0,0,0.1,0,0.1c0,0.2,0.2,0.3,0.3,0.3c0.2,0,0.4-0.2,0.4-0.5C38.5,27.8,38.3,27.6,38.1,27.5L38.1,27.5z
	 M36.7,27.5c-0.2,0-0.3,0.2-0.3,0.4H37C37,27.8,36.9,27.6,36.7,27.5L36.7,27.5z M35.9,25.4c0,0.1,0.1,0.2,0.2,0.2c0,0,0,0,0,0
	c0.1,0,0.3-0.1,0.3-0.2c0,0,0,0,0-0.1v-0.2C36.2,25.2,35.9,25.2,35.9,25.4L35.9,25.4z M34.9,21c-0.4,0-0.6,0.3-0.6,0.8
	s0.2,0.8,0.6,0.8c0.3,0,0.6-0.3,0.6-0.8C35.4,21.4,35.2,21.1,34.9,21L34.9,21z M34.6,26.7c-0.1,0-0.2,0-0.2,0v1.5h0.2
	c0.4,0,0.7-0.2,0.8-0.6c0-0.1,0-0.1,0-0.2C35.3,27,35.1,26.7,34.6,26.7C34.7,26.7,34.6,26.7,34.6,26.7L34.6,26.7z M34.6,23.8
	c-0.1,0-0.2,0-0.2,0v0.7c0.1,0,0.1,0,0.2,0c0.3,0,0.5-0.1,0.5-0.4C35,24,34.8,23.9,34.6,23.8L34.6,23.8z M27.6,23.9
	c-0.8,0.2-1.3-0.1-1.1-1.1s-0.4-0.9-1-1s-1,0.1-0.9,0.9c0.2,1-0.2,1.2-1.1,1.1c-0.2,0-0.5,0-0.7,0c-0.1,0-0.3,0.1-0.3,0.2
	c0,0.5,0.1,1,0.2,1.5c0.1,0.3,0.6,0.2,1,0.1c0.7-0.1,1.2,0.1,1,1c0.1,0.4-0.2,1,0.2,1.1c0.5,0.2,1,0.2,1.5,0
	c0.4-0.1,0.2-0.6,0.2-0.9c0-1.2,0-1.2,1.1-1.1c0.9,0.1,0.8-0.5,0.9-1.1C28.5,24.1,28.3,23.8,27.6,23.9L27.6,23.9z M39.1,28.3
	c0,0.1,0.1,0.2,0.2,0.2c0,0,0,0,0,0c0.1,0,0.3-0.1,0.3-0.2c0,0,0,0,0-0.1V28C39.4,28,39.1,28.1,39.1,28.3L39.1,28.3z M39,24.7
	c-0.2,0-0.4,0.2-0.4,0.4h0.7C39.3,24.9,39.2,24.7,39,24.7C39,24.7,39,24.7,39,24.7L39,24.7z M38.1,27.5c-0.2,0-0.3,0.1-0.4,0.3
	c0,0,0,0.1,0,0.1v0.2c0,0,0,0.1,0,0.1c0,0.2,0.2,0.3,0.3,0.3c0.2,0,0.4-0.2,0.4-0.5C38.5,27.8,38.3,27.6,38.1,27.5L38.1,27.5z
	 M36.7,27.5c-0.2,0-0.3,0.2-0.3,0.4H37C37,27.8,36.9,27.6,36.7,27.5L36.7,27.5z M35.9,25.4c0,0.1,0.1,0.2,0.2,0.2c0,0,0,0,0,0
	c0.1,0,0.3-0.1,0.3-0.2c0,0,0,0,0-0.1v-0.2C36.2,25.2,35.9,25.2,35.9,25.4L35.9,25.4z M34.6,26.7c-0.1,0-0.2,0-0.2,0v1.5h0.2
	c0.4,0,0.7-0.2,0.8-0.6c0-0.1,0-0.1,0-0.2C35.3,27,35,26.8,34.6,26.7C34.7,26.7,34.6,26.7,34.6,26.7L34.6,26.7z M34.6,23.8
	c-0.1,0-0.2,0-0.2,0v0.7c0.1,0,0.1,0,0.2,0c0.3,0,0.5-0.1,0.5-0.4C35,24,34.8,23.9,34.6,23.8L34.6,23.8z M34.9,21
	c-0.4,0-0.6,0.3-0.6,0.8s0.2,0.8,0.6,0.8c0.3,0,0.6-0.3,0.6-0.8C35.4,21.4,35.2,21.1,34.9,21L34.9,21z M27.6,23.9
	c-0.8,0.2-1.3-0.1-1.1-1.1s-0.4-0.9-1-1s-1,0.1-0.9,0.9c0.2,1-0.2,1.2-1.1,1.1c-0.2,0-0.5,0-0.7,0c-0.1,0-0.3,0.1-0.3,0.2
	c0,0.5,0.1,1,0.2,1.5c0.1,0.3,0.6,0.2,1,0.1c0.7-0.1,1.2,0.1,1,1c0.1,0.4-0.2,1,0.2,1.1c0.5,0.2,1,0.2,1.5,0
	c0.4-0.1,0.2-0.6,0.2-0.9c0-1.2,0-1.2,1.1-1.1c0.9,0.1,0.8-0.5,0.9-1.1C28.5,24.1,28.3,23.8,27.6,23.9L27.6,23.9z M39.1,28.3
	c0,0.1,0.1,0.2,0.2,0.2c0,0,0,0,0,0c0.1,0,0.3-0.1,0.3-0.2c0,0,0,0,0-0.1V28C39.4,28,39.1,28.1,39.1,28.3L39.1,28.3z M39,24.7
	c-0.2,0-0.4,0.2-0.4,0.4h0.7C39.3,24.9,39.2,24.7,39,24.7C39,24.7,39,24.7,39,24.7L39,24.7z M38.1,27.5c-0.2,0-0.3,0.1-0.4,0.3
	c0,0,0,0.1,0,0.1v0.2c0,0,0,0.1,0,0.1c0,0.2,0.2,0.3,0.3,0.3c0.2,0,0.4-0.2,0.4-0.5C38.5,27.8,38.3,27.6,38.1,27.5L38.1,27.5z
	 M36.7,27.5c-0.2,0-0.3,0.2-0.3,0.4H37C37,27.8,36.9,27.6,36.7,27.5L36.7,27.5z M35.9,25.4c0,0.1,0.1,0.2,0.2,0.2c0,0,0,0,0,0
	c0.1,0,0.3-0.1,0.3-0.2c0,0,0,0,0-0.1v-0.2C36.2,25.2,35.9,25.2,35.9,25.4L35.9,25.4z M34.9,21c-0.4,0-0.6,0.3-0.6,0.8
	s0.2,0.8,0.6,0.8c0.3,0,0.6-0.3,0.6-0.8C35.4,21.4,35.2,21.1,34.9,21L34.9,21z M34.6,26.7c-0.1,0-0.2,0-0.2,0v1.5h0.2
	c0.4,0,0.7-0.2,0.8-0.6c0-0.1,0-0.1,0-0.2C35.3,27.1,35,26.8,34.6,26.7C34.7,26.7,34.6,26.7,34.6,26.7L34.6,26.7z M34.6,23.8
	c-0.1,0-0.2,0-0.2,0v0.7c0.1,0,0.1,0,0.2,0c0.3,0,0.5-0.1,0.5-0.4C35,24,34.8,23.9,34.6,23.8L34.6,23.8z M27.6,23.9
	c-0.8,0.2-1.3-0.1-1.1-1.1s-0.4-0.9-1-1s-1,0.1-0.9,0.9c0.2,1-0.2,1.2-1.1,1.1c-0.2,0-0.5,0-0.7,0c-0.1,0-0.3,0.1-0.3,0.2
	c0,0.5,0.1,1,0.2,1.5c0.1,0.3,0.6,0.2,1,0.1c0.7-0.1,1.2,0.1,1,1c0.1,0.4-0.2,1,0.2,1.1c0.5,0.2,1,0.2,1.5,0
	c0.4-0.1,0.2-0.6,0.2-0.9c0-1.2,0-1.2,1.1-1.1c0.9,0.1,0.8-0.5,0.9-1.1C28.5,24.1,28.3,23.8,27.6,23.9L27.6,23.9z M39,24.7
	c-0.2,0-0.4,0.2-0.4,0.4h0.7C39.3,24.9,39.2,24.7,39,24.7C39,24.7,39,24.7,39,24.7L39,24.7z M36.7,27.5c-0.2,0-0.3,0.2-0.3,0.4H37
	C37,27.8,36.9,27.6,36.7,27.5L36.7,27.5z M35.9,25.4c0,0.1,0.1,0.2,0.2,0.2c0,0,0,0,0,0c0.1,0,0.3-0.1,0.3-0.2c0,0,0,0,0-0.1v-0.2
	C36.2,25.2,35.9,25.2,35.9,25.4L35.9,25.4z M34.6,26.7c-0.1,0-0.2,0-0.2,0v1.5h0.2c0.4,0,0.7-0.2,0.8-0.6c0-0.1,0-0.1,0-0.2
	C35.3,27.1,35,26.8,34.6,26.7C34.7,26.7,34.6,26.7,34.6,26.7L34.6,26.7z M34.6,23.8c-0.1,0-0.2,0-0.2,0v0.7c0.1,0,0.1,0,0.2,0
	c0.3,0,0.5-0.1,0.5-0.4C35,24,34.8,23.9,34.6,23.8L34.6,23.8z M34.9,21c-0.4,0-0.6,0.3-0.6,0.8s0.2,0.8,0.6,0.8
	c0.3,0,0.6-0.3,0.6-0.8C35.4,21.4,35.2,21.1,34.9,21L34.9,21z M27.6,23.9c-0.8,0.2-1.3-0.1-1.1-1.1s-0.4-0.9-1-1s-1,0.1-0.9,0.9
	c0.2,1-0.2,1.2-1.1,1.1c-0.2,0-0.5,0-0.7,0c-0.1,0-0.3,0.1-0.3,0.2c0,0.5,0.1,1,0.2,1.5c0.1,0.3,0.6,0.2,1,0.1c0.7-0.1,1.2,0.1,1,1
	c0.1,0.4-0.2,1,0.2,1.1c0.5,0.2,1,0.2,1.5,0c0.4-0.1,0.2-0.6,0.2-0.9c0-1.2,0-1.2,1.1-1.1c0.9,0.1,0.8-0.5,0.9-1.1
	C28.5,24.1,28.3,23.8,27.6,23.9L27.6,23.9z M39,24.7c-0.2,0-0.4,0.2-0.4,0.4h0.7C39.3,24.9,39.2,24.7,39,24.7
	C39,24.7,39,24.7,39,24.7L39,24.7z M36.7,27.5c-0.2,0-0.3,0.2-0.3,0.4H37C37,27.8,36.9,27.6,36.7,27.5L36.7,27.5z M35.9,25.4
	c0,0.1,0.1,0.2,0.2,0.2c0,0,0,0,0,0c0.1,0,0.3-0.1,0.3-0.2c0,0,0,0,0-0.1v-0.2C36.2,25.2,35.9,25.2,35.9,25.4L35.9,25.4z M34.9,21
	c-0.4,0-0.6,0.3-0.6,0.8s0.2,0.8,0.6,0.8c0.3,0,0.6-0.3,0.6-0.8C35.4,21.4,35.2,21.1,34.9,21L34.9,21z M34.6,26.7
	c-0.1,0-0.2,0-0.2,0v1.5h0.2c0.4,0,0.7-0.2,0.8-0.6c0-0.1,0-0.1,0-0.2C35.3,27.1,35.1,26.8,34.6,26.7C34.7,26.7,34.6,26.7,34.6,26.7
	L34.6,26.7z M34.6,23.9c-0.1,0-0.2,0-0.2,0v0.7c0.1,0,0.1,0,0.2,0c0.3,0,0.5-0.1,0.5-0.4C35,24,34.8,23.9,34.6,23.9L34.6,23.9z
	 M27.6,23.9c-0.8,0.2-1.3-0.1-1.1-1.1s-0.4-0.9-1-1s-1,0.1-0.9,0.9c0.2,1-0.2,1.2-1.1,1.1c-0.2,0-0.5,0-0.7,0
	c-0.1,0-0.3,0.1-0.3,0.2c0,0.5,0.1,1,0.2,1.5c0.1,0.3,0.6,0.2,1,0.1c0.7-0.1,1.2,0.1,1,1c0.1,0.4-0.2,1,0.2,1.1c0.5,0.2,1,0.2,1.5,0
	c0.4-0.1,0.2-0.6,0.2-0.9c0-1.2,0-1.2,1.1-1.1c0.9,0.1,0.8-0.5,0.9-1.1C28.5,24.1,28.3,23.8,27.6,23.9L27.6,23.9z M39,24.7
	c-0.2,0-0.4,0.2-0.4,0.4h0.7C39.3,24.9,39.2,24.7,39,24.7C39,24.7,39,24.7,39,24.7L39,24.7z M35.9,25.5c0,0.1,0.1,0.2,0.2,0.2
	c0,0,0,0,0,0c0.1,0,0.3-0.1,0.3-0.2c0,0,0,0,0-0.1v-0.2C36.2,25.2,35.9,25.2,35.9,25.5L35.9,25.5z M34.6,26.7c-0.1,0-0.2,0-0.2,0
	v1.5h0.2c0.4,0,0.7-0.2,0.8-0.6c0-0.1,0-0.1,0-0.2C35.3,27.1,35.1,26.8,34.6,26.7C34.7,26.7,34.6,26.7,34.6,26.7L34.6,26.7z
	 M34.6,23.9c-0.1,0-0.2,0-0.2,0v0.7c0.1,0,0.1,0,0.2,0c0.3,0,0.5-0.1,0.5-0.4C35,24,34.8,23.9,34.6,23.9L34.6,23.9z M34.9,21
	c-0.4,0-0.6,0.3-0.6,0.8s0.2,0.8,0.6,0.8c0.3,0,0.6-0.3,0.6-0.8C35.4,21.4,35.2,21.1,34.9,21L34.9,21z M27.6,23.9
	c-0.8,0.2-1.3-0.1-1.1-1.1s-0.4-0.9-1-1s-1,0.1-0.9,0.9c0.2,1-0.2,1.2-1.1,1.1c-0.2,0-0.5,0-0.7,0c-0.1,0-0.3,0.1-0.3,0.2
	c0,0.5,0.1,1,0.2,1.5c0.1,0.3,0.6,0.2,1,0.1c0.7-0.1,1.2,0.1,1,1c0.1,0.4-0.2,1,0.2,1.1c0.5,0.2,1,0.2,1.5,0
	c0.4-0.1,0.2-0.6,0.2-0.9c0-1.2,0-1.2,1.1-1.1c0.9,0.1,0.8-0.5,0.9-1.1C28.5,24.1,28.3,23.8,27.6,23.9L27.6,23.9z M39,24.7
	c-0.2,0-0.4,0.2-0.4,0.4h0.7C39.3,24.9,39.2,24.7,39,24.7C39,24.7,39,24.7,39,24.7L39,24.7z M35.9,25.5c0,0.1,0.1,0.2,0.2,0.2
	c0,0,0,0,0,0c0.1,0,0.3-0.1,0.3-0.2c0,0,0,0,0-0.1v-0.2C36.2,25.2,35.9,25.2,35.9,25.5L35.9,25.5z M34.9,21c-0.4,0-0.6,0.3-0.6,0.8
	s0.2,0.8,0.6,0.8c0.3,0,0.6-0.3,0.6-0.8C35.4,21.4,35.2,21.1,34.9,21L34.9,21z M34.6,26.7c-0.1,0-0.2,0-0.2,0v1.5h0.2
	c0.4,0,0.7-0.2,0.8-0.6c0-0.1,0-0.1,0-0.2c0-0.4-0.3-0.7-0.6-0.7C34.7,26.7,34.6,26.7,34.6,26.7L34.6,26.7z M34.6,23.9
	c-0.1,0-0.2,0-0.2,0v0.7c0.1,0,0.1,0,0.2,0c0.3,0,0.5-0.1,0.5-0.4C35,24,34.8,23.9,34.6,23.9L34.6,23.9z M27.6,23.9
	c-0.8,0.2-1.3-0.1-1.1-1.1s-0.4-0.9-1-1s-1,0.1-0.9,0.9c0.2,1-0.2,1.2-1.1,1.1c-0.2,0-0.5,0-0.7,0c-0.1,0-0.3,0.1-0.3,0.2
	c0,0.5,0.1,1,0.2,1.5c0.1,0.3,0.6,0.2,1,0.1c0.7-0.1,1.2,0.1,1,1c0.1,0.4-0.2,1,0.2,1.1c0.5,0.2,1,0.2,1.5,0
	c0.4-0.1,0.2-0.6,0.2-0.9c0-1.2,0-1.2,1.1-1.1c0.9,0.1,0.8-0.5,0.9-1.1C28.5,24.1,28.3,23.8,27.6,23.9L27.6,23.9z M35.9,25.5
	c0,0.1,0.1,0.2,0.2,0.2c0,0,0,0,0,0c0.1,0,0.3-0.1,0.3-0.2c0,0,0,0,0-0.1v-0.2C36.2,25.2,35.9,25.2,35.9,25.5L35.9,25.5z M34.6,26.7
	c-0.1,0-0.2,0-0.2,0v1.5h0.2c0.4,0,0.7-0.2,0.8-0.6c0-0.1,0-0.1,0-0.2c0-0.4-0.3-0.7-0.6-0.7C34.7,26.7,34.6,26.7,34.6,26.7
	L34.6,26.7z M34.6,23.9c-0.1,0-0.2,0-0.2,0v0.7c0.1,0,0.1,0,0.2,0c0.3,0,0.5-0.1,0.5-0.4C35,24,34.8,23.9,34.6,23.9L34.6,23.9z
	 M34.8,21c-0.4,0-0.6,0.3-0.6,0.8s0.2,0.8,0.6,0.8c0.3,0,0.6-0.3,0.6-0.8C35.4,21.4,35.2,21.1,34.8,21L34.8,21z M27.6,23.9
	c-0.8,0.2-1.3-0.1-1.1-1.1s-0.4-0.9-1-1s-1,0.1-0.9,0.9c0.2,1-0.2,1.2-1.1,1.1c-0.2,0-0.5,0-0.7,0c-0.1,0-0.3,0.1-0.3,0.2
	c0,0.5,0.1,1,0.2,1.5c0.1,0.3,0.6,0.2,1,0.1c0.7-0.1,1.2,0.1,1,1c0.1,0.4-0.2,1,0.2,1.1c0.5,0.2,1,0.2,1.5,0
	c0.4-0.1,0.2-0.6,0.2-0.9c0-1.2,0-1.2,1.1-1.1c0.9,0.1,0.8-0.5,0.9-1.1C28.5,24.1,28.3,23.8,27.6,23.9L27.6,23.9z M35.9,25.5
	c0,0.1,0.1,0.2,0.2,0.2c0,0,0,0,0,0c0.1,0,0.3-0.1,0.3-0.2c0,0,0,0,0-0.1v-0.2C36.2,25.2,35.9,25.2,35.9,25.5L35.9,25.5z M34.8,21
	c-0.4,0-0.6,0.3-0.6,0.8s0.2,0.8,0.6,0.8c0.3,0,0.6-0.3,0.6-0.8C35.4,21.4,35.2,21.1,34.8,21L34.8,21z M34.6,26.7
	c-0.1,0-0.2,0-0.2,0v1.5h0.2c0.4,0,0.7-0.2,0.8-0.6c0-0.1,0-0.1,0-0.2c0-0.4-0.2-0.7-0.6-0.7C34.7,26.7,34.6,26.7,34.6,26.7
	L34.6,26.7z M34.6,23.9c-0.1,0-0.2,0-0.2,0v0.7c0.1,0,0.1,0,0.2,0c0.3,0,0.5-0.1,0.5-0.4C35,24,34.8,23.9,34.6,23.9L34.6,23.9z
	 M27.6,23.9c-0.8,0.2-1.3-0.1-1.1-1.1s-0.4-0.9-1-1s-1,0.1-0.9,0.9c0.2,1-0.2,1.2-1.1,1.1c-0.2,0-0.5,0-0.7,0
	c-0.1,0-0.3,0.1-0.3,0.2c0,0.5,0.1,1,0.2,1.5c0.1,0.3,0.6,0.2,1,0.1c0.7-0.1,1.2,0.1,1,1c0.1,0.4-0.2,1,0.2,1.1c0.5,0.2,1,0.2,1.5,0
	c0.4-0.1,0.2-0.6,0.2-0.9c0-1.2,0-1.2,1.1-1.1c0.9,0.1,0.8-0.5,0.9-1.1C28.5,24.1,28.3,23.8,27.6,23.9L27.6,23.9z M35.9,25.5
	c0,0.1,0.1,0.2,0.2,0.2c0,0,0,0,0,0c0.1,0,0.3-0.1,0.3-0.2c0,0,0,0,0-0.1v-0.2C36.2,25.2,35.9,25.2,35.9,25.5L35.9,25.5z M34.6,26.7
	c-0.1,0-0.2,0-0.2,0v1.5h0.2c0.4,0,0.7-0.2,0.8-0.6c0-0.1,0-0.1,0-0.2c0-0.4-0.2-0.7-0.6-0.7C34.7,26.7,34.6,26.7,34.6,26.7
	L34.6,26.7z M34.6,23.9c-0.1,0-0.2,0-0.2,0v0.7c0.1,0,0.1,0,0.2,0c0.3,0,0.5-0.1,0.5-0.4C35,24,34.8,23.9,34.6,23.9L34.6,23.9z
	 M34.8,21c-0.4,0-0.6,0.3-0.6,0.8s0.2,0.8,0.6,0.8c0.3,0,0.6-0.3,0.6-0.8C35.4,21.4,35.2,21.1,34.8,21L34.8,21z M27.6,23.9
	c-0.8,0.2-1.3-0.1-1.1-1.1s-0.4-0.9-1-1s-1,0.1-0.9,0.9c0.2,1-0.2,1.2-1.1,1.1c-0.2,0-0.5,0-0.7,0c-0.1,0-0.3,0.1-0.3,0.2
	c0,0.5,0.1,1,0.2,1.5c0.1,0.3,0.6,0.2,1,0.1c0.7-0.1,1.2,0.1,1,1c0.1,0.4-0.2,1,0.2,1.1c0.5,0.2,1,0.2,1.5,0
	c0.4-0.1,0.2-0.6,0.2-0.9c0-1.2,0-1.2,1.1-1.1c0.9,0.1,0.8-0.5,0.9-1.1C28.5,24.1,28.3,23.8,27.6,23.9L27.6,23.9z M35.9,25.5
	c0,0.1,0.1,0.2,0.2,0.2c0,0,0,0,0,0c0.1,0,0.3-0.1,0.3-0.2c0,0,0,0,0-0.1v-0.2C36.2,25.2,35.9,25.2,35.9,25.5L35.9,25.5z M34.8,21
	c-0.4,0-0.6,0.3-0.6,0.8s0.2,0.8,0.6,0.8c0.3,0,0.6-0.3,0.6-0.8C35.4,21.4,35.2,21.1,34.8,21L34.8,21z M34.6,26.7
	c-0.1,0-0.2,0-0.2,0v1.5h0.2c0.4,0,0.7-0.2,0.8-0.6c0-0.1,0-0.1,0-0.2c0-0.4-0.2-0.7-0.6-0.7C34.7,26.7,34.6,26.7,34.6,26.7
	L34.6,26.7z M34.6,23.9c-0.1,0-0.2,0-0.2,0v0.7c0.1,0,0.1,0,0.2,0c0.3,0,0.5-0.1,0.5-0.4C35,24,34.8,23.9,34.6,23.9L34.6,23.9z
	 M27.6,23.9c-0.8,0.2-1.3-0.1-1.1-1.1s-0.4-0.9-1-1s-1,0.1-0.9,0.9c0.2,1-0.2,1.2-1.1,1.1c-0.2,0-0.5,0-0.7,0
	c-0.1,0-0.3,0.1-0.3,0.2c0,0.5,0.1,1,0.2,1.5c0.1,0.3,0.6,0.2,1,0.1c0.7-0.1,1.2,0.1,1,1c0.1,0.4-0.2,1,0.2,1.1c0.5,0.2,1,0.2,1.5,0
	c0.4-0.1,0.2-0.6,0.2-0.9c0-1.2,0-1.2,1.1-1.1c0.9,0.1,0.8-0.5,0.9-1.1C28.5,24.1,28.3,23.8,27.6,23.9L27.6,23.9z M34.6,26.7
	c-0.1,0-0.2,0-0.2,0v1.5h0.2c0.4,0,0.7-0.2,0.8-0.6c0-0.1,0-0.1,0-0.2c0-0.4-0.2-0.7-0.6-0.7C34.7,26.7,34.6,26.7,34.6,26.7
	L34.6,26.7z M34.6,23.9c-0.1,0-0.2,0-0.2,0v0.7c0.1,0,0.1,0,0.2,0c0.3,0,0.5-0.1,0.5-0.4C35,24,34.8,23.9,34.6,23.9L34.6,23.9z
	 M34.8,21c-0.4,0-0.6,0.3-0.6,0.8s0.2,0.8,0.6,0.8c0.3,0,0.6-0.3,0.6-0.8C35.4,21.4,35.2,21.1,34.8,21L34.8,21z M27.6,23.9
	c-0.8,0.2-1.3-0.1-1.1-1.1s-0.4-0.9-1-1s-1,0.1-0.9,0.9c0.2,1-0.2,1.2-1.1,1.1c-0.2,0-0.5,0-0.7,0c-0.1,0-0.3,0.1-0.3,0.2
	c0,0.5,0.1,1,0.2,1.5c0.1,0.3,0.6,0.2,1,0.1c0.7-0.1,1.2,0.1,1,1c0.1,0.4-0.2,1,0.2,1.1c0.5,0.2,1,0.2,1.5,0
	c0.4-0.1,0.2-0.6,0.2-0.9c0-1.2,0-1.2,1.1-1.1c0.9,0.1,0.8-0.5,0.9-1.1C28.5,24.1,28.3,23.8,27.6,23.9L27.6,23.9z M34.8,21
	c-0.4,0-0.6,0.3-0.6,0.8s0.2,0.8,0.6,0.8c0.3,0,0.6-0.3,0.6-0.8C35.4,21.4,35.2,21.1,34.8,21L34.8,21z M34.6,26.7
	c-0.1,0-0.2,0-0.2,0v1.5h0.2c0.4,0,0.7-0.2,0.8-0.6c0-0.1,0-0.1,0-0.2c0-0.4-0.2-0.7-0.6-0.7C34.7,26.7,34.6,26.7,34.6,26.7
	L34.6,26.7z M34.6,23.9c-0.1,0-0.2,0-0.2,0v0.7c0.1,0,0.1,0,0.2,0c0.3,0,0.5-0.1,0.5-0.4C35,24,34.8,23.9,34.6,23.9L34.6,23.9z
	 M27.6,23.9c-0.8,0.2-1.3-0.1-1.1-1.1s-0.4-0.9-1-1s-1,0.1-0.9,0.9c0.2,1-0.2,1.2-1.1,1.1c-0.2,0-0.5,0-0.7,0
	c-0.1,0-0.3,0.1-0.3,0.2c0,0.5,0.1,1,0.2,1.5c0.1,0.3,0.6,0.2,1,0.1c0.7-0.1,1.2,0.1,1,1c0.1,0.4-0.2,1,0.2,1.1c0.5,0.2,1,0.2,1.5,0
	c0.4-0.1,0.2-0.6,0.2-0.9c0-1.2,0-1.2,1.1-1.1c0.9,0.1,0.8-0.5,0.9-1.1C28.5,24.1,28.3,23.8,27.6,23.9L27.6,23.9z M34.6,26.7
	c-0.1,0-0.2,0-0.2,0v1.5h0.2c0.4,0,0.7-0.2,0.8-0.6c0-0.1,0-0.1,0-0.2c0-0.4-0.2-0.7-0.6-0.7C34.7,26.7,34.6,26.7,34.6,26.7
	L34.6,26.7z M34.6,23.9c-0.1,0-0.2,0-0.2,0v0.7c0.1,0,0.1,0,0.2,0c0.3,0,0.5-0.1,0.5-0.4C35,24,34.8,23.9,34.6,23.9L34.6,23.9z
	 M34.8,21c-0.4,0-0.6,0.3-0.6,0.8s0.2,0.8,0.6,0.8c0.3,0,0.6-0.3,0.6-0.8C35.4,21.4,35.2,21.1,34.8,21L34.8,21z M27.6,23.9
	c-0.8,0.2-1.3-0.1-1.1-1.1s-0.4-0.9-1-1s-1,0.1-0.9,0.9c0.2,1-0.2,1.2-1.1,1.1c-0.2,0-0.5,0-0.7,0c-0.1,0-0.3,0.1-0.3,0.2
	c0,0.5,0.1,1,0.2,1.5c0.1,0.3,0.6,0.2,1,0.1c0.7-0.1,1.2,0.1,1,1c0.1,0.4-0.2,1,0.2,1.1c0.5,0.2,1,0.2,1.5,0
	c0.4-0.1,0.2-0.6,0.2-0.9c0-1.2,0-1.2,1.1-1.1c0.9,0.1,0.8-0.5,0.9-1.1C28.5,24.1,28.3,23.8,27.6,23.9L27.6,23.9z M34.8,21
	c-0.4,0-0.6,0.3-0.6,0.8s0.2,0.8,0.6,0.8c0.3,0,0.6-0.3,0.6-0.8C35.4,21.4,35.2,21.1,34.8,21L34.8,21z M34.6,26.7
	c-0.1,0-0.2,0-0.2,0v1.5h0.2c0.4,0,0.7-0.2,0.8-0.6c0-0.1,0-0.1,0-0.2c0-0.4-0.2-0.7-0.6-0.7C34.7,26.7,34.6,26.7,34.6,26.7
	L34.6,26.7z M34.6,23.9c-0.1,0-0.2,0-0.2,0v0.7c0.1,0,0.1,0,0.2,0c0.3,0,0.5-0.1,0.5-0.4C35,24,34.8,23.9,34.6,23.9L34.6,23.9z
	 M27.6,23.9c-0.8,0.2-1.3-0.1-1.1-1.1s-0.4-0.9-1-1s-1,0.1-0.9,0.9c0.2,1-0.2,1.2-1.1,1.1c-0.2,0-0.5,0-0.7,0
	c-0.1,0-0.3,0.1-0.3,0.2c0,0.5,0.1,1,0.2,1.5c0.1,0.3,0.6,0.2,1,0.1c0.7-0.1,1.2,0.1,1,1c0.1,0.4-0.2,1,0.2,1.1c0.5,0.2,1,0.2,1.5,0
	c0.4-0.1,0.2-0.6,0.2-0.9c0-1.2,0-1.2,1.1-1.1c0.9,0.1,0.8-0.5,0.9-1.1C28.5,24.1,28.3,23.8,27.6,23.9L27.6,23.9z M34.8,21
	c-0.4,0-0.6,0.3-0.6,0.8s0.2,0.8,0.6,0.8c0.3,0,0.6-0.3,0.6-0.8C35.4,21.4,35.2,21.1,34.8,21L34.8,21z M27.6,23.9
	c-0.8,0.2-1.3-0.1-1.1-1.1s-0.4-0.9-1-1s-1,0.1-0.9,0.9c0.2,1-0.2,1.2-1.1,1.1c-0.2,0-0.5,0-0.7,0c-0.1,0-0.3,0.1-0.3,0.2
	c0,0.5,0.1,1,0.2,1.5c0.1,0.3,0.6,0.2,1,0.1c0.7-0.1,1.2,0.1,1,1c0.1,0.4-0.2,1,0.2,1.1c0.5,0.2,1,0.2,1.5,0
	c0.4-0.1,0.2-0.6,0.2-0.9c0-1.2,0-1.2,1.1-1.1c0.9,0.1,0.8-0.5,0.9-1.1C28.5,24.1,28.3,23.8,27.6,23.9L27.6,23.9z M34.8,21
	c-0.4,0-0.6,0.3-0.6,0.8s0.2,0.8,0.6,0.8c0.3,0,0.6-0.3,0.6-0.8C35.4,21.4,35.2,21.1,34.8,21L34.8,21z M27.6,23.9
	c-0.8,0.2-1.3-0.1-1.1-1.1s-0.4-0.9-1-1s-1,0.1-0.9,0.9c0.2,1-0.2,1.2-1.1,1.1c-0.2,0-0.5,0-0.7,0c-0.1,0-0.3,0.1-0.3,0.2
	c0,0.5,0.1,1,0.2,1.5c0.1,0.3,0.6,0.2,1,0.1c0.7-0.1,1.2,0.1,1,1c0.1,0.4-0.2,1,0.2,1.1c0.5,0.2,1,0.2,1.5,0
	c0.4-0.1,0.2-0.6,0.2-0.9c0-1.2,0-1.2,1.1-1.1c0.9,0.1,0.8-0.5,0.9-1.1C28.5,24.1,28.3,23.8,27.6,23.9L27.6,23.9z"/>
</svg>
