<?xml version="1.0" encoding="utf-8"?>
<!-- Generator: Adobe Illustrator 24.1.1, SVG Export Plug-In . SVG Version: 6.00 Build 0)  -->
<svg version="1.1" id="Layer_1" xmlns="http://www.w3.org/2000/svg" xmlns:xlink="http://www.w3.org/1999/xlink" x="0px" y="0px"
	 viewBox="0 0 64 64" style="enable-background:new 0 0 64 64;" xml:space="preserve">
<style type="text/css">
	.st0{fill:#2E3192;}
</style>
<g id="Group_2049" transform="translate(476.039 -581.739)">
	<path id="Path_4566" class="st0" d="M-434,617.3c-5.3,0-10.6,0-16,0c-0.4,0-0.5,0.1-0.5,0.5c0,0.3,0,0.6,0.5,0.6c0.9,0,1.8,0,2.6,0
		h0.5v2.7h-1v0.7l0.5,0c-0.3,0.6-0.3,1,0.1,1.3c0.3,0.2,0.7,0.3,1,0c0.2-0.1,0.3-0.3,0.3-0.4c0-0.3,0-0.6-0.1-0.9h8.3
		c-0.3,0.3-0.3,0.7-0.1,1.1c0.2,0.3,0.5,0.4,0.8,0.4c0.8-0.2,0.8-0.8,0.5-1.4l0.4-0.1v-0.7h-1v-2.7h0.5c0.9,0,1.8,0,2.7,0
		c0.4,0,0.5-0.2,0.5-0.6C-433.5,617.5-433.6,617.3-434,617.3z M-446.7,623c-0.3,0-0.5-0.2-0.5-0.5c0-0.2,0.2-0.4,0.4-0.4
		c0,0,0,0,0,0c0.3,0,0.5,0.2,0.5,0.6C-446.3,622.8-446.5,623-446.7,623z M-437.1,622.1c0.2,0,0.3,0.2,0.5,0.4c0,0.1,0,0.1,0,0.2
		c-0.2,0.1-0.3,0.3-0.5,0.4c-0.3,0.1-0.5-0.1-0.5-0.4c0-0.2,0.1-0.4,0.3-0.5C-437.2,622.1-437.1,622.1-437.1,622.1L-437.1,622.1z"/>
	<path id="Path_4567" class="st0" d="M-439.7,612.9c-0.5-0.7-1-1.3-1.6-2c-0.2-0.2-0.3-0.3-0.5-0.1c-0.5,0.5-1.2,0.6-1.8,0.3
		c-0.1-0.1-0.2-0.1-0.4-0.2c-0.2-0.3-0.5-0.2-0.7,0c-0.5,0.7-1.1,1.4-1.6,2c-0.1,0.2-0.1,0.4-0.1,0.5c0.4,0.6,0.8,1.1,1.3,1.6
		c0.2,0.1,0.4,0.1,0.6,0c0.2-0.1,0.2-0.4,0.1-0.6c0-0.1-0.1-0.1-0.1-0.2c0.1,0.2,0.3,0.4,0.4,0.7h2.1l0.5-0.7c0.4-0.5,0.2-1,0.3-1.7
		c0.2,0.3,0.4,0.5,0.6,0.7l-0.8,1c-0.3,0.6-0.3,0.6,0,1l0.6-0.2c0.4-0.5,0.7-0.9,1.1-1.4C-439.5,613.4-439.5,613.1-439.7,612.9z
		 M-445.3,613.3l0.8-1l0.1,0v1.9L-445.3,613.3z"/>
	<path id="Path_4568" class="st0" d="M-452.6,615.5c0.3,0.6,0.3,1.4-0.1,2c0,0.1-0.1,0.2,0,0.3c0.2,1.7,0.2,3.3,0.1,5
		c0,0.5-0.3,0.9-0.7,0.9s-0.7-0.3-0.7-0.9c0.1-1.6,0-3.2-0.1-4.8c0-0.2-0.1-0.3-0.2-0.5c-0.1-0.3-0.2-0.5-0.3-0.8
		c0-1.3,0.3-2.5,0.9-3.6c0.2-0.4,0.6-0.6,1-0.5c0,0,0,0,0,0c0.4,0.2,0.6,0.6,0.4,1c0,0,0,0,0,0l-0.2-0.3c-0.2-0.4-0.5-0.6-0.8-0.5
		c-0.3,0.1-0.3,0.5-0.2,0.9c0,0,0.1,0.1,0.1,0.1C-453.1,614.3-452.8,614.9-452.6,615.5z"/>
	<path id="Path_4569" class="st0" d="M-435,616.5c-0.1,0.3-0.4,0.6-0.8,0.5c-0.7-0.2-1.5-0.3-2.2-0.4c-0.8-0.1-1.5-0.1-2.3,0.1
		c-0.7,0.3-1.5,0.4-2.3,0.5c-0.1,0-0.1,0-0.2-0.1l2.3-0.7c0.4-0.3,0.4-0.6,0-1c-0.2,0-0.4,0-0.6,0c-0.9,0.1-1.9,0.7-2.9,0.3
		l-1.2-0.5c0,0,0,0,0,0c1-0.1,2.1-0.1,3.1-0.2c0.2,0,0.3,0,0.4,0.1l0.6-0.2c0,0,0.1,0,0.1,0c0.7,0.4,1.5,0.1,2.2,0.2
		c0.9,0.1,1.8,0.3,2.7,0.4c0.1,0,0.3,0.1,0.4,0.1C-435.1,615.8-434.9,616.2-435,616.5z"/>
	<path id="Path_4570" class="st0" d="M-439.1,605.5c-0.2-0.1-0.4-0.2-0.7-0.3c-1.2-0.3-2.4-0.4-3.6-0.4c-1.2-0.1-2.5,0.2-3.6,0.7
		l0,0c-0.1,0.2-0.1,0.5,0.1,0.6c0,0,0.1,0,0.1,0.1c0.2,0.1,0.5,0.2,0.7,0.3c1.8,0.4,3.7,0.5,5.6,0.1c0.4-0.1,0.9-0.2,1.3-0.4
		C-438.8,606.1-438.8,605.8-439.1,605.5z M-446.6,605.8c0.7-0.4,1.6-0.4,2.3,0C-445,606.2-445.8,606.2-446.6,605.8L-446.6,605.8z
		 M-444.1,606.3c0.7-0.4,1.6-0.4,2.3,0C-442.5,606.6-443.4,606.6-444.1,606.3L-444.1,606.3z M-444.1,605.5c0.7-0.4,1.6-0.4,2.3,0
		C-442.5,605.8-443.4,605.9-444.1,605.5L-444.1,605.5z M-441.4,605.8c0.7-0.4,1.6-0.4,2.3,0C-439.9,606.2-440.7,606.2-441.4,605.8
		L-441.4,605.8z"/>
	<path id="Path_4571" class="st0" d="M-450.9,611.6l-1.2-0.5c0,0.2-0.1,0.4-0.1,0.4c-0.2,0-0.4,0-0.5-0.1l1.1,0.8
		c-0.6,0.3-1.2,0.1-1.6-0.4c-0.4-0.5-0.4-1.3,0-1.8c0.3-0.3,0.5-0.7,0.8-1c0.2-0.4,0.7-0.5,1-0.3c0,0,0,0,0,0c1.3,0.5,1.3,0.8,0.8,2
		C-450.9,610.9-450.9,611.3-450.9,611.6z"/>
	<path id="Path_4572" class="st0" d="M-447,605.6c-0.2-0.5-0.1-1,0.4-1.1c0.8-0.2,1.5-0.4,2.3-0.5c1.4-0.1,2.8-0.1,4.1,0.2
		c0.2,0,0.4,0.1,0.5,0.2c0.7,0.3,0.8,0.4,0.8,1.2c-1.6-0.7-3.3-0.9-5-0.7c-0.8,0.1-1.6,0.2-2.4,0.4
		C-446.5,605.3-446.8,605.5-447,605.6L-447,605.6z"/>
	<path id="Path_4573" class="st0" d="M-446.2,615.8c0,0.7-0.6,1.4-1.3,1.4c0,0,0,0,0,0c-0.7,0-1.4-0.6-1.4-1.3c0,0,0,0,0,0
		c0-0.8,0.6-1.4,1.3-1.4c0,0,0,0,0,0C-446.8,614.4-446.2,615-446.2,615.8C-446.2,615.8-446.2,615.8-446.2,615.8z"/>
	<path id="Path_4574" class="st0" d="M-440.4,616.4c-0.7,0.2-1.3,0.3-2,0.5c-0.4,0.2-0.9,0.1-1.4-0.1c-0.1,0-0.2-0.1-0.3-0.1
		c-0.4-0.1-0.7-0.2-1.1-0.4c-0.3-0.1-0.6-0.3-0.5-0.7s0.3-0.4,0.6-0.5l1.2,0.5c0.4,0.3,0.9,0.4,1.3,0.2c0.7-0.2,1.4-0.3,2.1-0.5
		C-440,615.9-440,616.1-440.4,616.4z"/>
	<path id="Path_4575" class="st0" d="M-442.8,607.7c0.3,0,0.6,0.1,0.8,0.2c0.5,0.2,0.4,0.7,0.5,1.1c0,0.2,0.1,0.3,0.1,0.5
		c0,0.1,0,0.3,0,0.4c-0.2,0.1-0.4,0.1-0.6,0.1c-0.5,0-1,0-1.5,0c-0.2,0-0.4,0-0.5-0.1c-0.1,0-0.1-0.3-0.1-0.4c0-0.3,0.1-0.6,0.1-0.9
		c0.1-0.6,0.3-0.8,1-0.8L-442.8,607.7L-442.8,607.7z"/>
	<path id="Path_4576" class="st0" d="M-452.6,615.5c-0.2-0.6-0.4-1.2-0.7-1.8c0,0-0.1-0.1-0.1-0.1c-0.1-0.4-0.1-0.7,0.2-0.9
		c0.3-0.1,0.6,0.1,0.8,0.5c0.2,0.5,0.4,1.1,0.6,1.6c0,0.1,0.2,0.1,0.2,0.2c0.5,0.2,0.9,0.5,1.4,0.7c0.4,0.2,0.5,0.4,0.4,0.7
		s-0.4,0.3-0.8,0.1C-451.3,616.2-451.9,615.8-452.6,615.5z"/>
	<path id="Path_4577" class="st0" d="M-445,615.3c-0.3,0-0.6,0.1-0.6,0.5s0.2,0.5,0.5,0.7c0.4,0.1,0.7,0.3,1.1,0.4l0.6,0.3l0,0.1
		c-0.7-0.2-1.4-0.3-2-0.5c-0.4-0.1-0.5-0.5-0.4-0.9c0-0.3,0.3-0.6,0.7-0.6C-445.2,615.1-445.1,615.2-445,615.3
		C-445,615.2-445,615.2-445,615.3z"/>
	<path id="Path_4578" class="st0" d="M-441.8,610.8c-0.5,0.5-1.2,0.6-1.8,0.3l-0.3-0.3c0.4,0,0.9,0.1,1.3,0.1c0.2,0,0.4-0.1,0.6-0.1
		C-441.9,610.7-441.8,610.7-441.8,610.8z"/>
	<path id="Path_4579" class="st0" d="M-441.5,610c-0.1,0.4-0.1,0.7-0.5,0.5C-442.1,610.1-441.7,610.2-441.5,610z"/>
	<path id="Path_4580" class="st0" d="M-444.2,610.1c0.2,0.1,0.5,0,0.4,0.4C-444.1,610.6-444.1,610.3-444.2,610.1z"/>
	<path id="Path_4581" class="st0" d="M-444.4,614.2L-444.4,614.2L-444.4,614.2L-444.4,614.2z"/>
</g>
</svg>
