<?xml version="1.0" encoding="utf-8"?>
<!-- Generator: Adobe Illustrator 24.1.1, SVG Export Plug-In . SVG Version: 6.00 Build 0)  -->
<svg version="1.1" id="Layer_1" xmlns="http://www.w3.org/2000/svg" xmlns:xlink="http://www.w3.org/1999/xlink" x="0px" y="0px"
	 viewBox="0 0 64 64" style="enable-background:new 0 0 64 64;" xml:space="preserve">
<style type="text/css">
	.st0{fill:#2E3192;}
</style>
<path id="Path_4472" class="st0" d="M40.4,37.8v-8.9c0.2,0,0.3,0,0.4-0.1c1-0.1,1.7-1,1.7-2c0-1-0.8-1.8-1.7-1.9c-0.4,0-0.7,0-1.1,0
	c-0.7,0-1.3,0-2,0c0-0.3,0-0.5,0-0.7c0-1.1-0.9-1.9-2-1.9c-2.4,0-4.9,0-7.3,0c-1.1,0-1.9,0.9-2,1.9c0,0.2,0,0.5,0,0.7
	c-0.1,0-0.2,0-0.3,0c-0.9,0-1.7,0-2.6,0c-1.1,0-1.9,0.8-2,1.8c-0.1,1.1,0.7,2,1.8,2.1c0.1,0,0.2,0,0.3,0.1v8.9c-0.1,0-0.3,0-0.4,0
	c-1.1,0.1-1.8,1.1-1.7,2.2c0,0.3,0.1,0.5,0.3,0.8c0.4,0.6,1.1,1,1.8,1c3.2,0,6.4,0,9.6,0c2.4,0,4.8,0,7.2,0c0.9,0,1.7-0.5,2-1.4
	c0.3-1.1-0.3-2.2-1.4-2.5C40.8,37.8,40.6,37.8,40.4,37.8z M37.7,26.3c1,0,1.9,0,2.9,0c0.3,0,0.5,0.2,0.5,0.5c0,0,0,0,0,0.1
	c0,0.3-0.2,0.5-0.5,0.6c0,0,0,0,0,0c-0.9,0-1.9,0-2.9,0L37.7,26.3z M31.3,24.8c0.1-0.8,0.3-1,0.8-1s0.6,0.3,0.7,1
	c0.9,0.2,1.1,0.4,1,0.8c0,0.4-0.3,0.6-1,0.7c-0.2,0.8-0.3,1.1-0.8,1s-0.6-0.3-0.7-1c-0.8-0.1-1-0.3-1-0.7S30.5,24.9,31.3,24.8
	L31.3,24.8z M39,28.9v1.7c-0.2,0-0.3,0-0.5,0c-1,0-1.9,0-2.9,0c-1.2-0.1-2.2,0.8-2.3,2c0,0.1,0,0.2,0,0.3c0,0.6,0,1.1,0,1.7
	c-0.1,1.2,0.8,2.2,2,2.3c0.1,0,0.2,0,0.3,0c0.9,0,1.9,0,2.8,0H39v1h-7v-0.5c0-1.5,0-3,0-4.4c0.1-1.2-0.8-2.2-2-2.3
	c-0.1,0-0.2,0-0.3,0c-0.4,0-0.7,0-1,0c-1.2-0.1-2.2,0.8-2.2,1.9c0,0.1,0,0.2,0,0.3c0,1.5,0,3,0,4.5v0.5h-1.4v-8.9L39,28.9z M38.9,32
	v3.4c-1.2,0-2.4,0-3.6,0c-0.3,0-0.6-0.3-0.6-0.6c0,0,0,0,0,0c0-0.7,0-1.3,0-2c0-0.4,0.3-0.7,0.6-0.7c0,0,0.1,0,0.1,0
	C36.6,32,37.7,32,38.9,32L38.9,32z M30.6,37.8h-2.7c0-0.1,0-0.2,0-0.3c0-1.5,0-3.1,0-4.6c0-0.6,0.2-0.9,0.9-0.9c0.4,0,0.8,0,1.1,0
	c0.4,0,0.7,0.3,0.7,0.6c0,0,0,0,0,0C30.6,34.4,30.6,36.1,30.6,37.8L30.6,37.8z M23.5,27.4c-0.3,0-0.5-0.2-0.6-0.5c0,0,0,0,0,0
	c0-0.3,0.2-0.6,0.5-0.6c0,0,0.1,0,0.1,0c0.9,0,1.9,0,2.9,0v1.2C25.4,27.4,24.4,27.5,23.5,27.4L23.5,27.4z M40.6,40.4
	c-0.1,0.1-0.3,0-0.5,0H23.8c-0.1,0-0.3,0-0.4,0c-0.2-0.1-0.4-0.3-0.5-0.5s0.2-0.4,0.4-0.6c0.1-0.1,0.3,0,0.4,0c5.5,0,11,0,16.4,0
	c0.1,0,0.3,0,0.4,0c0.2,0.2,0.4,0.4,0.4,0.6S40.8,40.2,40.6,40.4L40.6,40.4z"/>
</svg>
