<?xml version="1.0" encoding="utf-8"?>
<!-- Generator: Adobe Illustrator 24.1.1, SVG Export Plug-In . SVG Version: 6.00 Build 0)  -->
<svg version="1.1" id="Layer_1" xmlns="http://www.w3.org/2000/svg" xmlns:xlink="http://www.w3.org/1999/xlink" x="0px" y="0px"
	 viewBox="0 0 64 64" style="enable-background:new 0 0 64 64;" xml:space="preserve">
<style type="text/css">
	.st0{fill:#191919;}
</style>
<path id="Icon_awesome-phone-alt" class="st0" d="M35.8,35.7l-3.1-1.3c-0.3-0.1-0.6,0-0.8,0.2l-1.4,1.7c-2.1-1-3.8-2.7-4.8-4.8
	l1.7-1.4c0.2-0.2,0.3-0.5,0.2-0.8l-1.3-3.1c-0.1-0.3-0.4-0.5-0.8-0.4l-2.8,0.7c-0.3,0.1-0.5,0.3-0.5,0.6c0,7,5.7,12.7,12.7,12.7
	c0,0,0,0,0,0c0.3,0,0.6-0.2,0.6-0.5l0.7-2.8C36.3,36.1,36.1,35.8,35.8,35.7L35.8,35.7z"/>
</svg>
