<?xml version="1.0" encoding="utf-8"?>
<!-- Generator: Adobe Illustrator 24.1.1, SVG Export Plug-In . SVG Version: 6.00 Build 0)  -->
<svg version="1.1" id="Layer_1" xmlns="http://www.w3.org/2000/svg" xmlns:xlink="http://www.w3.org/1999/xlink" x="0px" y="0px"
	 viewBox="0 0 64 64" style="enable-background:new 0 0 64 64;" xml:space="preserve">
<style type="text/css">
	.st0{fill:#2E3192;}
</style>
<g id="Group_2048" transform="translate(603.332 -637.212)">
	<path id="Path_4551" class="st0" d="M-564.7,673.7c-1.1,2.7-3.6,4.5-6.5,4.8c-3.4,0.5-6.7-1.1-8.3-4.1c-1.8-2.9-1.6-6.6,0.5-9.3
		c0.2-0.4,0.5-0.7,0.9-0.9c0.2,0.2,0,0.4-0.1,0.6c-1.5,2.7-1.6,5.9-0.2,8.6c1.9,3.8,6.5,5.3,10.3,3.4c1.2-0.6,2.2-1.5,2.9-2.6
		l0.4-0.5L-564.7,673.7z"/>
	<path id="Path_4552" class="st0" d="M-564,664.1c2.8,2.9,2.9,8.1,0.4,11.6c-2.4,3.4-7.2,4.7-10.2,3.6c1-0.1,1.9,0,2.8-0.2
		c4.2-0.7,7.3-4.1,7.7-8.3c0.2-2-0.1-3.9-0.7-5.8C-564,664.7-564.2,664.4-564,664.1z"/>
	<path id="Path_4553" class="st0" d="M-575,673.7c-0.6-0.5-1.1-1.1-1.4-1.8c-1.5-2.9-0.3-6.5,2.6-7.9c0.1-0.1,0.3-0.1,0.4-0.2
		c0,0,0,0,0.1,0c0.4-0.1,0.8-0.4,1.2-0.1c0.4,0.3,0.1,0.8,0,1.2c-0.4,1.6-0.2,3.2,0.4,4.7c0.3,1.1,1,2,0.8,3.2c0,0,0,0.1,0,0.1
		c-0.1,0.4,0.1,1-0.4,1.1c-0.4,0-0.3-0.6-0.3-0.9c-0.3-2-1.4-3.7-2.2-5.6c-0.1-0.2-0.2-0.5-0.2-0.8c0-0.3,0.1-0.6-0.2-0.7
		c-0.2-0.1-0.5,0.2-0.6,0.4c-1.3,1.5-1.7,3.6-1,5.5C-575.5,672.5-575.2,673-575,673.7z"/>
	<path id="Path_4554" class="st0" d="M-567.3,674.1c-0.6-0.9-0.9-1.9-0.9-3c-0.1-1,0-2.1,0-3.1c0-0.2,0-0.4,0-0.6
		c-0.1-0.3-0.1-0.7-0.6-0.8s-0.5,0.4-0.6,0.7c-0.2,1.4,0,2.9,0.4,4.3c0.1,0.6,0.3,1.2,0.4,1.9c0.1,0.8-0.2,1.5-0.8,2
		c0.5-2.4-0.3-4.5-1-6.6c-0.4-1.2-0.4-2.5-0.1-3.8c0.1-0.5,0.4-1,0.9-1.2c0.5-0.5,1.3-0.4,1.8,0.1c0.2,0.2,0.3,0.4,0.3,0.6
		c0.3,1,0.3,2.1,0.1,3.1c-0.3,1.8-0.3,3.7,0,5.5C-567.3,673.6-567.3,673.9-567.3,674.1z"/>
	<path id="Path_4555" class="st0" d="M-572.2,660.8c0-1.2,0.7-2.1,1.5-2.1s1.4,1,1.4,2.1c0,1.2-0.7,2.1-1.5,2
		S-572.3,661.9-572.2,660.8z"/>
	<path id="Path_4556" class="st0" d="M-571.6,666.6c-0.2,0-0.4-0.3-0.3-0.5c0-0.2,0.1-0.4,0.4-0.4s0.3,0.3,0.3,0.5
		S-571.3,666.6-571.6,666.6z"/>
	<path id="Path_4557" class="st0" d="M-571.3,664.5c0.3,0.1,0.3,0.2,0.3,0.5c0,0.2-0.1,0.5-0.4,0.4c-0.2,0-0.3-0.2-0.3-0.4
		C-571.6,664.7-571.5,664.5-571.3,664.5z"/>
	<path id="Path_4558" class="st0" d="M-571.2,667.3c0,0.2-0.1,0.4-0.3,0.4c-0.3,0-0.4-0.2-0.4-0.4c0-0.2,0.1-0.4,0.3-0.4
		S-571.3,667.1-571.2,667.3z"/>
	<path id="Path_4559" class="st0" d="M-570.2,673.8c-0.2,0-0.4-0.2-0.4-0.4c0-0.2,0.1-0.5,0.3-0.5c0.2,0,0.3,0.2,0.3,0.4
		C-569.8,673.4-569.9,673.7-570.2,673.8z"/>
	<path id="Path_4560" class="st0" d="M-570.3,674.9c-0.3,0.1-0.3-0.1-0.3-0.2c0-0.3,0-0.5,0.3-0.6c0.2-0.1,0.3,0.1,0.3,0.3
		C-569.9,674.7-570,674.9-570.3,674.9z"/>
	<path id="Path_4561" class="st0" d="M-569.9,672.1c0,0.2,0,0.4-0.3,0.4c-0.2,0-0.3-0.2-0.3-0.4s0-0.4,0.3-0.4
		C-570,671.6-569.9,671.9-569.9,672.1z"/>
	<path id="Path_4562" class="st0" d="M-571.6,668.5c0-0.2,0.1-0.4,0.3-0.4c0.2,0,0.3,0.2,0.3,0.4s-0.1,0.4-0.3,0.4
		S-571.6,668.7-571.6,668.5z"/>
	<path id="Path_4563" class="st0" d="M-570.3,670.9c0,0.2-0.1,0.4-0.3,0.4s-0.3-0.2-0.3-0.4c0-0.2,0.1-0.3,0.3-0.4
		C-570.4,670.5-570.3,670.7-570.3,670.9z"/>
	<path id="Path_4564" class="st0" d="M-570.7,669.7c0,0.2-0.1,0.4-0.3,0.4c-0.3,0-0.4-0.2-0.4-0.4c0-0.2,0.1-0.3,0.2-0.3
		c0,0,0,0,0.1,0C-570.9,669.3-570.7,669.5-570.7,669.7z"/>
	<path id="Path_4565" class="st0" d="M-564.9,673.6c0.1-0.1,0.1-0.4,0.3-0.3c0.2,0.1,0,0.3-0.1,0.4L-564.9,673.6z"/>
</g>
</svg>
