<?xml version="1.0" encoding="utf-8"?>
<!-- Generator: Adobe Illustrator 24.1.1, SVG Export Plug-In . SVG Version: 6.00 Build 0)  -->
<svg version="1.1" id="Layer_1" xmlns="http://www.w3.org/2000/svg" xmlns:xlink="http://www.w3.org/1999/xlink" x="0px" y="0px"
	 viewBox="0 0 64 64" style="enable-background:new 0 0 64 64;" xml:space="preserve">
<style type="text/css">
	.st0{fill:#2E3192;}
</style>
<path id="Path_4582" class="st0" d="M31.5,32c-0.8,0-1.6-0.1-2.4-0.3c-0.1,0-0.1-0.1-0.2,0c-0.1,0.1-0.2,0.1-0.3,0.2
	c0.1,0.1,0.1,0.3,0.2,0.3c0.7,0.2,1.5,0.3,2.2,0.5c0,0,0-0.1,0-0.1h0.6c0.2,0,0.4,0,0.4-0.3S31.7,32,31.5,32z M31.5,32
	c-0.8,0-1.6-0.1-2.4-0.3c-0.1,0-0.1-0.1-0.2,0c-0.1,0.1-0.2,0.1-0.3,0.2c0.1,0.1,0.1,0.3,0.2,0.3c0.7,0.2,1.5,0.3,2.2,0.5
	c0,0,0-0.1,0-0.1h0.6c0.2,0,0.4,0,0.4-0.3S31.7,32,31.5,32z M31.5,32c-0.8,0-1.6-0.1-2.4-0.3c-0.1,0-0.1-0.1-0.2,0
	c-0.1,0.1-0.2,0.1-0.3,0.2c0.1,0.1,0.1,0.3,0.2,0.3c0.7,0.2,1.5,0.3,2.2,0.5c0,0,0-0.1,0-0.1h0.6c0.2,0,0.4,0,0.4-0.3
	S31.7,32,31.5,32z M31.5,32c-0.8,0-1.6-0.1-2.4-0.3c-0.1,0-0.1-0.1-0.2,0c-0.1,0.1-0.2,0.1-0.3,0.2c0.1,0.1,0.1,0.3,0.2,0.3
	c0.7,0.2,1.5,0.3,2.2,0.5c0,0,0-0.1,0-0.1h0.6c0.2,0,0.4,0,0.4-0.3S31.7,32,31.5,32z M44.3,29.8c-0.5-3.2-2.3-6-5-7.9
	c-1.9-1.4-4.1-2.2-6.5-2.3c-0.1,0-0.2,0-0.3-0.1h-1.1c-0.3,0-0.7,0.1-1,0.1c-5,0.6-9.1,4.1-10.4,9c-0.2,0.8-0.4,1.7-0.4,2.5
	c0,0.1,0,0.2-0.1,0.3v1.1c0.1,0.5,0.1,1.1,0.2,1.6c0.8,4.9,4.5,8.8,9.3,9.9c0.7,0.2,1.5,0.3,2.2,0.3c0.1,0,0.2,0,0.3,0.1h0.7
	c0.6-0.1,1.2-0.1,1.8-0.2c4.2-0.7,7.7-3.5,9.3-7.4c0.6-1.3,0.9-2.7,1-4.1c0-0.1,0-0.3,0.1-0.4v-0.7C44.4,31,44.4,30.4,44.3,29.8
	L44.3,29.8z M23.9,31.6c0.8-0.2,1.6-0.4,2.4-0.6c0.2,0,0.4,0,0.6,0c0.6,0.2,1.2,0.2,1.8,0.2c0.8-0.1,1.7,0,2.5,0
	c0.4,0,0.9,0.2,1,0.6c0.2-0.7,0.7-1,1.2-0.9c0.5,0.1,0.8,0.5,0.9,1c0,0.5-0.3,1-0.8,1.1c-0.6,0.1-1.1-0.2-1.3-0.8
	c-0.1,0.5-0.6,0.8-1.1,0.8c-0.7,0-1.4,0-2.1,0c-0.9-0.1-1.7-0.3-2.6-0.5c-0.1,0-0.3,0-0.5,0c-0.6,0.2-1.2,0.3-1.9,0.5
	c-0.5,0.1-0.9,0-1-0.4C23.2,32.1,23.4,31.8,23.9,31.6L23.9,31.6z M34.9,29.3c-0.8-1.2-2.4-1.5-3.6-0.8c-0.4,0.2-0.7,0.6-0.9,1
	c-0.2,0.4-0.4,0.7-0.5,1.1c-0.1,0.3-0.2,0.4-0.5,0.3c-0.2,0-0.4,0-0.6,0c0.1-1.7,1.3-3.1,2.9-3.6c1.1-0.3,2.2,0.1,2.9,0.9
	c1.9,2.1,1.8,5.3-0.1,7.4c-1.1,1.2-3,1.2-4.2,0.1c-0.1-0.1-0.2-0.1-0.3-0.3c0.6-0.1,1.2-0.1,1.7,0.1c1.1,0.4,2.3,0.1,3-0.9
	C36.1,33.1,36.1,31,34.9,29.3L34.9,29.3z M34.9,34c-3.9,0-7.8,0-11.7,0c0,0-0.1,0-0.1,0v-0.4h12.2C35.2,33.8,35.2,34,34.9,34
	L34.9,34z M21.6,33.3c0-0.1,0.1-0.2,0.2-0.2c0.1,0,0.2,0,0.3,0h13.4c0,0.4-0.2,0.4-0.5,0.4h-8.5c-1.4,0-2.9,0-4.3,0
	c-0.1,0-0.2,0-0.3,0C21.7,33.4,21.6,33.4,21.6,33.3L21.6,33.3z M24.1,35.3c-0.5,0-1,0-1.5,0c-0.6,0-0.7-0.1-0.7-0.7
	c0-0.1,0-0.2,0-0.4h13.1c-0.3,0.6-1,1.1-1.7,1.1C30.2,35.3,27.1,35.3,24.1,35.3L24.1,35.3z M36.6,38.6c-2.8,0.8-5.8-0.3-7.5-2.8
	c0-0.1-0.1-0.1-0.1-0.2c0,0,0.1-0.1,0.1-0.1c0.1,0.1,0.2,0.2,0.4,0.3c0.5,0.9,1.4,1.5,2.4,1.8c1.4,0.4,2.8-0.1,3.7-1.2
	c0.8-0.9,1.4-2.1,1.5-3.3c0.3-1.7-0.1-3.5-1.1-4.9c-1.1-1.8-3.4-2.3-5.2-1.2c-0.5,0.3-0.9,0.7-1.2,1.3c-0.5,0.7-0.9,1.6-1,2.5
	c0,0,0,0.1,0,0.1c-0.1,0.1-0.2,0.2-0.2,0.3c0-0.1-0.1-0.2-0.1-0.3c0.1-0.9,0.5-1.7,1-2.4c2.1-3.2,6.3-4.1,9.4-2
	c1,0.7,1.8,1.6,2.4,2.7c1.7,3.4,0.3,7.5-3.1,9.1C37.4,38.3,37,38.4,36.6,38.6L36.6,38.6z M28.8,32.1c0.7,0.2,1.5,0.3,2.2,0.5
	c0,0,0-0.1,0-0.1h0.6c0.2,0,0.4,0,0.4-0.3S31.7,32,31.5,32c-0.8,0-1.6-0.1-2.4-0.3c-0.1,0-0.1-0.1-0.2,0c-0.1,0.1-0.2,0.1-0.3,0.2
	C28.6,31.9,28.7,32.1,28.8,32.1L28.8,32.1z M31.5,32c-0.8,0-1.6-0.1-2.4-0.3c-0.1,0-0.1-0.1-0.2,0c-0.1,0.1-0.2,0.1-0.3,0.2
	c0.1,0.1,0.1,0.3,0.2,0.3c0.7,0.2,1.5,0.3,2.2,0.5c0,0,0-0.1,0-0.1h0.6c0.2,0,0.4,0,0.4-0.3S31.7,32,31.5,32L31.5,32z M31.5,32
	c-0.8,0-1.6-0.1-2.4-0.3c-0.1,0-0.1-0.1-0.2,0c-0.1,0.1-0.2,0.1-0.3,0.2c0.1,0.1,0.1,0.3,0.2,0.3c0.7,0.2,1.5,0.3,2.2,0.5
	c0,0,0-0.1,0-0.1h0.6c0.2,0,0.4,0,0.4-0.3S31.7,32,31.5,32L31.5,32z"/>
</svg>
