<?xml version="1.0" encoding="utf-8"?>
<!-- Generator: Adobe Illustrator 24.1.1, SVG Export Plug-In . SVG Version: 6.00 Build 0)  -->
<svg version="1.1" id="Layer_1" xmlns="http://www.w3.org/2000/svg" xmlns:xlink="http://www.w3.org/1999/xlink" x="0px" y="0px"
	 viewBox="0 0 64 64" style="enable-background:new 0 0 64 64;" xml:space="preserve">
<style type="text/css">
	.st0{fill:#606060;}
</style>
<path id="Icon_awesome-search" class="st0" d="M41.7,39.3l-3.9-3.9c-0.2-0.2-0.4-0.3-0.7-0.3h-0.6c2.8-3.5,2.1-8.6-1.4-11.4
	s-8.6-2.1-11.4,1.4s-2.1,8.6,1.4,11.4c2.9,2.3,7.1,2.3,10,0v0.6c0,0.2,0.1,0.5,0.3,0.7l3.9,3.9c0.4,0.4,1,0.4,1.3,0c0,0,0,0,0,0
	l1.1-1.1C42.1,40.2,42.1,39.7,41.7,39.3L41.7,39.3z M30.1,35.1c-2.8,0-5-2.2-5-5s2.2-5,5-5s5,2.2,5,5S32.9,35.1,30.1,35.1
	C30.1,35.1,30.1,35.1,30.1,35.1L30.1,35.1z"/>
</svg>
