<?xml version="1.0" encoding="utf-8"?>
<!-- Generator: Adobe Illustrator 24.1.1, SVG Export Plug-In . SVG Version: 6.00 Build 0)  -->
<svg version="1.1" id="Layer_1" xmlns="http://www.w3.org/2000/svg" xmlns:xlink="http://www.w3.org/1999/xlink" x="0px" y="0px"
	 viewBox="0 0 64 64" style="enable-background:new 0 0 64 64;" xml:space="preserve">
<style type="text/css">
	.st0{fill:#212121;}
</style>
<g id="Group_2353" transform="translate(-199 -4672)">
	<path id="_8674605_ic_fluent_comma_regular_icon" class="st0" d="M236,4704c2.3-2,5.9-1.8,7.9,0.6c2,2.3,1.8,5.9-0.6,7.9
		s-5.9,1.8-7.9-0.6c-0.7-0.9-1.2-1.9-1.3-3c-0.6-2.8-0.4-5.6,0.7-8.3c1.4-3.3,4.3-5.6,7.8-6.4c0.6-0.2,1.1,0.2,1.3,0.7
		c0.2,0.6-0.2,1.1-0.7,1.3c0,0,0,0,0,0c-2.9,0.6-5.2,2.5-6.4,5.1C236.3,4702.2,236.1,4703.1,236,4704z"/>
	<path id="_8674605_ic_fluent_comma_regular_icon-2" class="st0" d="M219,4704c2.3-2,5.9-1.8,7.9,0.6c2,2.3,1.8,5.9-0.6,7.9
		s-5.9,1.8-7.9-0.6c-0.7-0.9-1.2-1.9-1.3-3c-0.6-2.8-0.4-5.6,0.7-8.3c1.4-3.3,4.3-5.6,7.8-6.4c0.6-0.2,1.1,0.2,1.3,0.7
		c0.2,0.6-0.2,1.1-0.7,1.3c0,0,0,0,0,0c-2.9,0.6-5.2,2.5-6.4,5.1C219.3,4702.2,219.1,4703.1,219,4704z"/>
</g>
</svg>
