<?xml version="1.0" encoding="utf-8"?>
<!-- Generator: Adobe Illustrator 24.1.1, SVG Export Plug-In . SVG Version: 6.00 Build 0)  -->
<svg version="1.1" id="Layer_1" xmlns="http://www.w3.org/2000/svg" xmlns:xlink="http://www.w3.org/1999/xlink" x="0px" y="0px"
	 viewBox="0 0 64 64" style="enable-background:new 0 0 64 64;" xml:space="preserve">
<style type="text/css">
	.st0{fill:#FFFFFF;}
	.st1{fill:#2E3192;}
</style>
<g id="Group_1704" transform="translate(0 0.167)">
	<circle id="Ellipse_220" class="st0" cx="32" cy="31.8" r="14"/>
	<path id="Icon_awesome-twitter" class="st1" d="M37.9,28.9c0,0.1,0,0.3,0,0.4c0,4.6-3.7,8.4-8.3,8.5c0,0-0.1,0-0.1,0
		c-1.6,0-3.2-0.5-4.6-1.3c0.2,0,0.5,0,0.7,0c1.3,0,2.6-0.4,3.7-1.3c-1.3,0-2.4-0.9-2.8-2.1c0.2,0,0.4,0,0.6,0c0.3,0,0.5,0,0.8-0.1
		c-1.4-0.3-2.4-1.5-2.4-2.9v0c0.4,0.2,0.9,0.4,1.3,0.4c-1.3-0.9-1.7-2.6-0.9-4c1.5,1.9,3.7,3,6.1,3.1c0-0.2-0.1-0.5-0.1-0.7
		c0-1.6,1.3-3,3-3c0.8,0,1.6,0.3,2.2,0.9c0.7-0.1,1.3-0.4,1.9-0.7c-0.2,0.7-0.7,1.3-1.3,1.6c0.6-0.1,1.2-0.2,1.7-0.5
		C39,27.9,38.5,28.4,37.9,28.9L37.9,28.9z"/>
</g>
</svg>
